<?xml version="1.0" encoding="UTF-8" standalone="no"?>
<!-- Created with Inkscape (http://www.inkscape.org/) -->

<svg
   xmlns:dc="http://purl.org/dc/elements/1.1/"
   xmlns:cc="http://creativecommons.org/ns#"
   xmlns:rdf="http://www.w3.org/1999/02/22-rdf-syntax-ns#"
   xmlns:svg="http://www.w3.org/2000/svg"
   xmlns="http://www.w3.org/2000/svg"
   xmlns:sodipodi="http://sodipodi.sourceforge.net/DTD/sodipodi-0.dtd"
   xmlns:inkscape="http://www.inkscape.org/namespaces/inkscape"
   version="1.0"
   width="230.69131"
   height="191.29022"
   id="svg2"
   sodipodi:docname="coal-mine.svg"
   inkscape:export-filename="/home/ademant/src/mt5/mods/xpfw/textures/xpfw_miner.png"
   inkscape:export-xdpi="26.87936"
   inkscape:export-ydpi="26.87936"
   inkscape:version="0.92.3 (2405546, 2018-03-11)">
  <metadata
     id="metadata30">
    <rdf:RDF>
      <cc:Work
         rdf:about="">
        <dc:format>image/svg+xml</dc:format>
        <dc:type
           rdf:resource="http://purl.org/dc/dcmitype/StillImage" />
      </cc:Work>
    </rdf:RDF>
  </metadata>
  <sodipodi:namedview
     pagecolor="#ffffff"
     bordercolor="#666666"
     borderopacity="1"
     objecttolerance="10"
     gridtolerance="10"
     guidetolerance="10"
     inkscape:pageopacity="0"
     inkscape:pageshadow="2"
     inkscape:window-width="1366"
     inkscape:window-height="749"
     id="namedview28"
     showgrid="false"
     inkscape:zoom="1.2337275"
     inkscape:cx="115.34566"
     inkscape:cy="95.645111"
     inkscape:window-x="0"
     inkscape:window-y="0"
     inkscape:window-maximized="1"
     inkscape:current-layer="svg2" />
  <defs
     id="defs5" />
  <path
     d="M 86.199633,177.95564 C 86.199633,177.95564 90.954691,168.77562 93.663405,164.90924 C 96.294527,161.15361 100.00167,156.12567 103.47135,153.12754 C 109.82464,147.6377 118.52701,140.58955 125.061,135.31608 C 128.11123,132.8543 131.46573,127.95414 135.31609,127.21996 C 136.97669,126.90332 139.14204,128.21598 140.7135,128.83919 C 143.06948,129.77351 145.77752,133.07761 148.26987,132.61737 C 153.45404,131.66008 155.72562,122.76932 160.95379,122.09242 C 163.62641,121.74639 165.60229,122.83013 167.70056,124.52126 C 168.77032,125.38345 169.65284,127.27645 170.93901,127.7597 C 173.21769,128.61589 176.69856,126.53736 179.03512,127.21996 C 182.7033,128.29158 186.62102,132.0415 189.2902,134.77634 C 190.67072,136.19083 191.34284,139.20987 193.0684,140.17375 C 195.47572,141.51845 200.22854,138.86764 202.244,140.71349 C 209.84748,147.67709 215.17584,153.75087 218.43624,163.92236 C 219.78064,168.11653 222.75416,177.95564 222.75416,177.95564 L 86.199633,177.95564 z"
     id="path2392"
     style="fill:#11111a;fill-opacity:1;fill-rule:evenodd;stroke:#000000;stroke-width:2px;stroke-linecap:butt;stroke-linejoin:miter;stroke-opacity:1" />
  <path
     d="M 132.94126,185.09666 L 108.91058,150.05388 L 123.23222,138.27847 L 150.11572,179.94432 L 132.94126,185.09666 z"
     id="path3226"
     style="fill:#feffff;fill-opacity:0.59501558;fill-rule:evenodd;stroke:none;stroke-width:1px;stroke-linecap:butt;stroke-linejoin:miter;stroke-opacity:1" />
  <rect
     width="226.69131"
     height="14.033272"
     x="2"
     y="175.25694"
     id="rect2384"
     style="fill:#000000;fill-opacity:1;fill-rule:evenodd;stroke:#000000;stroke-width:4;stroke-miterlimit:4;stroke-dasharray:none;stroke-opacity:1" />
  <rect
     width="62.07024"
     height="15.652495"
     x="23.04991"
     y="19.81146"
     id="rect2386"
     style="fill:#000000;fill-opacity:1;fill-rule:evenodd;stroke:#000000;stroke-width:4;stroke-miterlimit:4;stroke-dasharray:none;stroke-opacity:1" />
  <rect
     width="72.325325"
     height="4.8576708"
     x="18.731981"
     y="68.388168"
     id="rect2388"
     style="fill:#000000;fill-opacity:1;fill-rule:evenodd;stroke:#000000;stroke-width:4;stroke-miterlimit:4;stroke-dasharray:none;stroke-opacity:1" />
  <path
     d="M 29.526805,101.85212 L 78.643257,101.85212"
     id="path2394"
     style="fill:none;fill-rule:evenodd;stroke:#000000;stroke-width:4;stroke-linecap:butt;stroke-linejoin:miter;stroke-miterlimit:4;stroke-dasharray:none;stroke-opacity:1" />
  <path
     d="M 29.526805,137.47504 L 78.643257,137.47504"
     id="path3166"
     style="fill:none;fill-rule:evenodd;stroke:#000000;stroke-width:4;stroke-linecap:butt;stroke-linejoin:miter;stroke-miterlimit:4;stroke-dasharray:none;stroke-opacity:1" />
  <path
     d="M 30.126411,175.09884 L 77.083897,138.39644"
     id="path3168"
     style="fill:none;fill-rule:evenodd;stroke:#000000;stroke-width:4;stroke-linecap:butt;stroke-linejoin:miter;stroke-miterlimit:4;stroke-dasharray:none;stroke-opacity:1" />
  <path
     d="M 32.225511,138.01479 L 79.182997,101.31238"
     id="path3170"
     style="fill:none;fill-rule:evenodd;stroke:#000000;stroke-width:4;stroke-linecap:butt;stroke-linejoin:miter;stroke-miterlimit:4;stroke-dasharray:none;stroke-opacity:1" />
  <path
     d="M 30.704509,100.70716 L 81.440185,71.021394 L 81.440185,71.021394"
     id="path3172"
     style="fill:none;fill-rule:evenodd;stroke:#000000;stroke-width:4;stroke-linecap:butt;stroke-linejoin:miter;stroke-miterlimit:4;stroke-dasharray:none;stroke-opacity:1" />
  <path
     d="M 31.146029,180.1146 L 31.146029,27.907578"
     id="path3174"
     style="fill:none;fill-rule:evenodd;stroke:#000000;stroke-width:4;stroke-linecap:butt;stroke-linejoin:miter;stroke-miterlimit:4;stroke-dasharray:none;stroke-opacity:1" />
  <path
     d="M 77.024033,180.1146 L 77.024033,27.907578"
     id="path3176"
     style="fill:none;fill-rule:evenodd;stroke:#000000;stroke-width:4;stroke-linecap:butt;stroke-linejoin:miter;stroke-miterlimit:4;stroke-dasharray:none;stroke-opacity:1" />
  <path
     d="M 35.463959,26.288354 L 35.463959,2"
     id="path3178"
     style="fill:none;fill-rule:evenodd;stroke:#000000;stroke-width:4;stroke-linecap:butt;stroke-linejoin:miter;stroke-miterlimit:4;stroke-dasharray:none;stroke-opacity:1" />
  <path
     d="M 36.448021,44.874641 A 2.4807553,2.6715827 0 1 1 31.486511,44.874641 A 2.4807553,2.6715827 0 1 1 36.448021,44.874641 z"
     transform="matrix(2,0,0,2,-15.140753,-19.530684)"
     id="path3180"
     style="fill:#000000;fill-opacity:1;fill-rule:evenodd;stroke:#000000;stroke-width:2;stroke-miterlimit:4;stroke-dasharray:none;stroke-opacity:1" />
  <path
     d="M 46.561872,46.6875 A 11.1634,11.1634 0 1 1 24.235072,46.6875 A 11.1634,11.1634 0 1 1 46.561872,46.6875 z"
     transform="matrix(2,0,0,2,-17.430681,-21.057302)"
     id="path3182"
     style="fill:none;fill-opacity:1;fill-rule:evenodd;stroke:#000000;stroke-width:2;stroke-miterlimit:4;stroke-dasharray:none;stroke-opacity:1" />
  <path
     d="M 86.570219,112.77309 L 86.570219,79.95079"
     id="path3188"
     style="fill:none;fill-rule:evenodd;stroke:#000000;stroke-width:4;stroke-linecap:butt;stroke-linejoin:miter;stroke-miterlimit:4;stroke-dasharray:none;stroke-opacity:1" />
  <path
     d="M 102.79054,138.91644 L 102.79054,106.09414"
     id="path3190"
     style="fill:none;fill-rule:evenodd;stroke:#000000;stroke-width:4;stroke-linecap:butt;stroke-linejoin:miter;stroke-miterlimit:4;stroke-dasharray:none;stroke-opacity:1" />
  <path
     d="M 87.142701,115.6355 L 102.79054,104.18586"
     id="path3196"
     style="fill:none;fill-rule:evenodd;stroke:#000000;stroke-width:4;stroke-linecap:butt;stroke-linejoin:miter;stroke-miterlimit:4;stroke-dasharray:none;stroke-opacity:1" />
  <path
     d="M 103.55385,141.58802 L 119.2017,130.13838"
     id="path3198"
     style="fill:none;fill-rule:evenodd;stroke:#000000;stroke-width:4;stroke-linecap:butt;stroke-linejoin:miter;stroke-miterlimit:4;stroke-dasharray:none;stroke-opacity:1" />
  <path
     d="M 124.92651,176.3186 L 66.151693,81.668238"
     id="path3184"
     style="fill:none;fill-rule:evenodd;stroke:#000000;stroke-width:4;stroke-linecap:butt;stroke-linejoin:miter;stroke-miterlimit:4;stroke-dasharray:none;stroke-opacity:1" />
  <path
     d="M 146.12872,175.38506 L 82.351415,72.678752"
     id="path3186"
     style="fill:none;fill-rule:evenodd;stroke:#000000;stroke-width:4.34045076;stroke-linecap:butt;stroke-linejoin:miter;stroke-miterlimit:4;stroke-dasharray:none;stroke-opacity:1" />
  <path
     d="M 118.43839,163.72399 L 118.43839,130.90169"
     id="path3192"
     style="fill:none;fill-rule:evenodd;stroke:#000000;stroke-width:4;stroke-linecap:butt;stroke-linejoin:miter;stroke-miterlimit:4;stroke-dasharray:none;stroke-opacity:1" />
  <path
     d="M 132.55961,186.62328 L 132.55961,153.80097"
     id="path3194"
     style="fill:none;fill-rule:evenodd;stroke:#000000;stroke-width:4;stroke-linecap:butt;stroke-linejoin:miter;stroke-miterlimit:4;stroke-dasharray:none;stroke-opacity:1" />
  <path
     d="M 118.05673,165.63226 L 133.70457,154.18262"
     id="path3200"
     style="fill:none;fill-rule:evenodd;stroke:#000000;stroke-width:4;stroke-linecap:butt;stroke-linejoin:miter;stroke-miterlimit:4;stroke-dasharray:none;stroke-opacity:1" />
</svg>
