<?xml version="1.0" encoding="UTF-8" standalone="no"?>
<!-- Created with Inkscape (http://www.inkscape.org/) -->

<svg
   xmlns:dc="http://purl.org/dc/elements/1.1/"
   xmlns:cc="http://creativecommons.org/ns#"
   xmlns:rdf="http://www.w3.org/1999/02/22-rdf-syntax-ns#"
   xmlns:svg="http://www.w3.org/2000/svg"
   xmlns="http://www.w3.org/2000/svg"
   xmlns:sodipodi="http://sodipodi.sourceforge.net/DTD/sodipodi-0.dtd"
   xmlns:inkscape="http://www.inkscape.org/namespaces/inkscape"
   id="svg4161"
   version="1.1"
   inkscape:version="0.91 r13725"
   width="283.125"
   height="368.4375"
   viewBox="0 0 283.125 368.4375"
   sodipodi:docname="WorkingTheLand.svg">
  <metadata
     id="metadata4167">
    <rdf:RDF>
      <cc:Work
         rdf:about="">
        <dc:format>image/svg+xml</dc:format>
        <dc:type
           rdf:resource="http://purl.org/dc/dcmitype/StillImage" />
        <dc:title></dc:title>
      </cc:Work>
    </rdf:RDF>
  </metadata>
  <defs
     id="defs4165" />
  <sodipodi:namedview
     pagecolor="#ffffff"
     bordercolor="#666666"
     borderopacity="1"
     objecttolerance="10"
     gridtolerance="10"
     guidetolerance="10"
     inkscape:pageopacity="0"
     inkscape:pageshadow="2"
     inkscape:window-width="1600"
     inkscape:window-height="837"
     id="namedview4163"
     showgrid="false"
     inkscape:zoom="1.8117287"
     inkscape:cx="141.5625"
     inkscape:cy="184.21875"
     inkscape:window-x="-8"
     inkscape:window-y="-8"
     inkscape:window-maximized="1"
     inkscape:current-layer="svg4161" />
  <path
     style="fill:#000000"
     d="m 192.93431,365.50781 c -1.95745,-1.21114 1.08626,-1.722 9.97272,-1.67384 11.85475,0.0642 11.60446,1.88641 -0.28866,2.10165 -4.80538,0.087 -9.16321,-0.10554 -9.68406,-0.42781 z m -42.67156,-1.52992 -1.89914,-1.64712 2.12356,-1.60181 c 2.02506,-1.52749 2.14591,-1.51632 2.60543,0.24087 0.32387,1.2385 0.0119,1.84267 -0.95141,1.84267 -1.16773,0 -1.21704,0.26054 -0.26619,1.40625 1.58145,1.90552 0.71296,1.77577 -1.61225,-0.24086 z m 6.17145,0.80874 c 1.07894,-0.68357 1.07894,-0.88112 0,-1.26854 -0.70287,-0.25238 0.30408,-0.4722 2.23767,-0.48848 1.9336,-0.0163 3.51563,0.37498 3.51563,0.86947 0,0.49449 0.39273,0.65636 0.87272,0.35971 0.48,-0.29666 1.13771,-0.11062 1.46158,0.41342 0.32604,0.52755 -0.27266,0.95279 -1.34147,0.95279 -1.06168,0 -1.93033,-0.41143 -1.93033,-0.9143 0,-0.59405 -0.84228,-0.59405 -2.40478,0 -2.9574,1.1244 -4.1239,1.16113 -2.41102,0.0759 z M 142.5,361.40625 c -0.68989,-1.28906 -2.07193,-2.34375 -3.07122,-2.34375 -1.22984,0 -1.64253,-0.45436 -1.27725,-1.40625 0.62884,-1.63876 0.17265,-1.74607 -2.14654,-0.50487 -0.92633,0.49576 -3.11345,1.11544 -4.86024,1.37705 -2.94146,0.44055 -2.82984,0.30379 1.5115,-1.85189 2.57812,-1.28015 3.84375,-2.0629 2.8125,-1.73943 -4.58805,1.4391 -5.3035,1.17431 -1.6187,-0.59908 3.69342,-1.77752 4.12494,-1.80946 5.5254,-0.40901 1.72693,1.72693 4.26463,1.35836 10.21741,-1.48402 2.09639,-1.001 4.4378,-1.82 5.20313,-1.82 0.76533,0 1.79229,-0.35532 2.28213,-0.78961 0.48985,-0.43428 4.13008,-1.91404 8.0894,-3.28834 3.95933,-1.37431 11.47435,-4.79063 16.70006,-7.59182 5.2257,-2.8012 9.35931,-4.66714 9.18578,-4.14655 -0.44484,1.33452 -17.90042,10.61472 -24.64711,13.10355 -9.11094,3.361 -10.32351,4.96029 -6.5909,8.6929 2.70915,2.70914 9.87006,3.93523 18.17668,3.11219 5.79246,-0.57393 12.92362,-6.86439 18.59213,-16.40029 1.3165,-2.21471 2.58378,-3.83659 2.81616,-3.6042 0.79858,0.79857 -4.61682,8.5739 -9.39575,13.4903 -2.63135,2.70703 -4.30015,4.92187 -3.70846,4.92187 1.55294,0 8.88285,-6.43565 12.0124,-10.54687 2.30713,-3.03084 5.30081,-5.1315 3.75998,-2.63838 -0.32649,0.52827 0.49062,0.58684 2.05405,0.14723 3.59369,-1.01048 9.6651,-0.14224 10.28404,1.47068 0.69867,1.82071 -0.5671,2.91653 -1.54366,1.33641 -2.23218,-3.61174 -11.1736,-1.3525 -17.29412,4.36972 -3.17229,2.96585 -7.65663,6.17405 -9.96518,7.12933 -2.30855,0.95527 -4.92992,2.11543 -5.82527,2.57812 -7.3706,3.80893 -25.98042,-2.31926 -24.53474,-8.07927 0.39371,-1.5687 0.19426,-2.32947 -0.61073,-2.32947 -0.65746,0 -0.91321,0.28217 -0.56833,0.62705 0.94554,0.94554 -2.24153,4.06045 -4.15452,4.06045 -0.92091,0 -1.9351,0.42187 -2.25378,0.9375 -0.31868,0.51562 -1.37336,0.9375 -2.34375,0.9375 -2.81015,0 -3.31689,2.0118 -0.98281,3.90183 1.4101,1.14183 1.67201,1.72317 0.77634,1.72317 -0.74343,0 -1.91614,-1.05469 -2.60603,-2.34375 z m 16.87847,-3.74631 c -1.2091,-1.28702 -2.4428,-2.09446 -2.74154,-1.7943 -0.29875,0.30017 0.45277,1.35319 1.67005,2.34006 3.11082,2.52199 3.68077,2.23169 1.07149,-0.54576 z m -41.72222,4.6918 c 0.51563,-0.17201 2.08277,-0.56487 3.48253,-0.87304 1.75688,-0.38679 2.37906,-0.99285 2.00907,-1.957 -0.34261,-0.89283 0.0275,-1.3967 1.02593,-1.3967 0.95376,0 1.29795,0.42704 0.884,1.09682 -0.45579,0.73748 -0.16678,0.90069 0.88218,0.49817 0.85802,-0.32925 1.56004,-0.40661 1.56004,-0.1719 0,0.80066 -6.78576,3.26463 -8.78636,3.19039 -1.0972,-0.0407 -1.57301,-0.21474 -1.05739,-0.38674 z m -6.48833,-2.02777 c -0.4083,-1.06401 -0.15152,-1.31188 0.92938,-0.8971 0.82145,0.31522 2.58405,0.57313 3.91687,0.57313 3.0526,0 2.51388,0.50246 -1.32,1.23119 -2.19287,0.41681 -3.10858,0.18122 -3.52625,-0.90722 z m 94.61333,0.61353 c -1.54688,-0.39361 -5.02734,-0.76557 -7.73438,-0.82658 -4.94396,-0.11142 -7.17145,-1.9921 -2.34375,-1.97884 3.935,0.0108 14.4477,1.85443 16.10574,2.82448 1.84343,1.07851 -1.759,1.06712 -6.02761,-0.019 z m 17.44866,-2.88843 c -2.26261,-0.4444 -4.37199,-1.08988 -4.6875,-1.43439 -0.94211,-1.02871 12.33592,0.45115 13.3755,1.49073 1.15525,1.15525 -2.64477,1.1306 -8.688,-0.0564 z M 92.568881,357.0171 c -0.647669,-0.41134 1.137786,-0.74475 4.031025,-0.75275 2.856516,-0.007 7.662644,-0.65744 10.680294,-1.44344 3.01764,-0.786 5.68011,-1.23559 5.9166,-0.99911 1.41732,1.41732 -18.555931,4.51121 -20.627919,3.1953 z m 103.192839,-1.40752 c 0.67675,-0.27081 1.48535,-0.23751 1.79688,0.074 0.31152,0.31152 -0.2422,0.5331 -1.23047,0.4924 -1.09214,-0.045 -1.31428,-0.26713 -0.56641,-0.5664 z m 6.19909,-0.75587 c 5.15533,-2.00573 5.26322,-2.44677 0.47368,-1.93611 -2.65227,0.28278 -3.47562,0.16717 -2.27824,-0.31987 3.04958,-1.24047 14.53125,-2.13163 14.53125,-1.12786 0,0.93144 -7.96568,3.52892 -13.32904,4.34639 -2.9797,0.45415 -2.96061,0.42365 0.60235,-0.96255 z M 88.333599,352.91559 C 85.602207,351.00245 85.662267,345 88.412802,345 c 0.68554,0 0.652343,0.37236 -0.100302,1.125 -3.313153,3.31315 -0.0884,6.62138 7.222116,7.40904 l 5.246634,0.5653 -5.182022,0.13783 c -3.366397,0.0895 -5.912061,-0.3735 -7.265629,-1.32158 z m 53.463271,-1.40756 c 0.12891,-0.54559 -1.86823,-1.70574 -4.43807,-2.57812 -5.19326,-1.76295 -7.59614,-4.90079 -6.01514,-7.85491 0.5004,-0.935 0.56558,-1.7 0.14486,-1.7 -2.20071,0 -2.90265,5.69018 -0.9288,7.52911 1.08973,1.01524 1.51004,1.84589 0.93402,1.84589 -1.26763,0 -3.99374,-2.60544 -3.99374,-3.81697 0,-0.47879 -0.63281,-0.87053 -1.40625,-0.87053 -0.77344,0 -1.40625,-0.42188 -1.40625,-0.9375 0,-1.17967 -3.07556,-1.22947 -4.26563,-0.0691 -1.1314,1.10318 -15.61017,3.85511 -19.50981,3.70816 l -2.94331,-0.11093 2.8125,-0.79254 c 2.46229,-0.69387 2.32025,-0.75005 -1.14075,-0.45122 -2.627616,0.22687 -3.885094,-0.0204 -3.75,-0.73716 0.111787,-0.59316 -0.429563,-0.92711 -1.203,-0.74209 -0.773438,0.18501 -3.920019,0.51909 -6.992405,0.7424 -6.142319,0.44643 -7.246235,0.92472 -5.167945,2.23907 1.195579,0.7561 1.185728,0.87408 -0.07403,0.88653 -0.799219,0.007 -1.891496,-0.42402 -2.427284,-0.9598 -0.654055,-0.65406 -2.795059,-0.68748 -6.515625,-0.10172 -3.630971,0.57165 -5.743883,0.54912 -6.128586,-0.0653 -0.544493,-0.8697 -6.092117,-0.42708 -10.545907,0.84139 -0.966916,0.27539 -1.517672,0.11181 -1.223904,-0.36352 0.300845,-0.48678 -3.43533,-0.34065 -8.554472,0.33457 -12.06701,1.59166 -22.438443,1.52404 -25.963597,-0.16928 -2.61944,-1.25826 -2.281584,-1.31301 4.921875,-0.79764 10.549536,0.75476 24.139888,-0.42792 20.859375,-1.81526 l -2.34375,-0.99119 2.785086,-0.37492 c 1.531798,-0.2062 2.938048,0.084 3.125,0.64483 0.643939,1.93182 6.592496,1.18361 7.747466,-0.97447 1.058149,-1.97717 1.004346,-1.98892 -6.29514,-1.37417 -15.28605,1.28737 -24.706162,2.68732 -24.706162,3.67165 0,0.65636 -0.39337,0.61588 -1.125,-0.11575 -0.61875,-0.61875 -1.954687,-1.125 -2.96875,-1.125 -1.014062,0 -1.631547,-0.2122 -1.372186,-0.47156 0.338252,-0.33825 20.031802,-3.27844 21.959186,-3.27844 0.113418,0 -0.0026,-0.79859 -0.257867,-1.77464 -0.388821,-1.48686 -1.078981,-1.69218 -4.255836,-1.26607 -2.981795,0.39994 -3.698775,0.22831 -3.356481,-0.80348 0.59381,-1.78994 20.183842,-4.197 22.536088,-2.76905 0.895347,0.54354 2.929388,0.98824 4.52009,0.98824 1.590701,0 3.524997,0.63281 4.298434,1.40625 0.832182,0.83218 3.123707,1.40625 5.613365,1.40625 2.566014,0 3.9811,0.3657 3.627707,0.9375 -0.832643,1.34724 -6.873114,1.08104 -11.25,-0.49579 -4.469048,-1.61002 -7.628063,-1.75141 -8.476049,-0.37934 -1.016804,1.64523 0.164796,2.07659 6.82089,2.49009 3.488463,0.21671 7.186409,0.52097 8.217659,0.67613 1.03125,0.15517 3.351562,0.38588 5.15625,0.51268 l 3.28125,0.23057 -2.8125,0.64652 c -1.546875,0.35558 -4.049743,0.31301 -5.561929,-0.0946 -2.913227,-0.78528 -9.654089,-0.0661 -10.379318,1.10731 -0.237018,0.3835 1.459832,0.48415 3.770778,0.22367 2.777911,-0.3131 4.201719,-0.11459 4.201719,0.58584 0,0.58268 0.612048,1.05942 1.360105,1.05942 2.751003,0 10.828323,-2.05263 10.456346,-2.65719 -0.514779,-0.83666 17.223577,-1.21739 18.548921,-0.39813 1.995528,1.23351 13.018678,1.34057 13.764578,0.13368 0.43311,-0.70078 3.5095,-1.24613 7.92589,-1.40503 6.24289,-0.22462 11.54633,-1.29833 6.41291,-1.29833 -1.01406,0 -2.32164,-0.47789 -2.90573,-1.06198 -0.61724,-0.61724 -1.77545,-0.75858 -2.76563,-0.33749 -2.48381,1.05628 -9.20618,1.73427 -16.70364,1.68466 -23.810471,-0.15756 -27.65625,-0.32529 -27.65625,-1.20615 0,-0.52472 2.214844,-1.00395 4.921875,-1.06496 7.806593,-0.17593 11.892722,-1.49171 5.390625,-1.73584 -9.402424,-0.35303 -16.287155,-1.00223 -16.818872,-1.58594 -0.288682,-0.31692 5.275903,-0.32559 12.365747,-0.0192 13.335713,0.57618 14.680584,0.39277 10.3125,-1.4063 -2.182286,-0.89882 -2.307308,-1.12536 -0.814278,-1.47552 0.970119,-0.22751 2.657619,0.0115 3.750003,0.5313 5.61851,2.67315 7.7121,2.77336 11.96997,0.57296 2.12705,-1.09923 2.64668,-1.08739 3.61752,0.0824 1.62793,1.96152 -2.28436,3.25264 -10.14675,3.34857 l -6.26709,0.0765 3.28125,1.43828 c 2.83643,1.24331 4.36151,1.27814 11.25,0.2569 7.46372,-1.10652 21.99817,-1.33144 23.5625,-0.36463 0.38568,0.23837 -0.012,1.71107 -0.88376,3.27268 -2.34412,4.19914 1.02485,6.88426 10.56935,8.42395 3.88543,0.62679 7.06441,1.51164 7.06441,1.96635 0,0.45471 -1.05469,0.56203 -2.34375,0.23849 -1.44412,-0.36245 -2.34375,-0.18938 -2.34375,0.45089 0,0.57153 -1.05469,1.03914 -2.34375,1.03914 -1.28906,0 -2.23828,-0.44639 -2.10937,-0.99197 z M 53.4375,338.90625 c 0,-0.77344 0.667969,-1.40625 1.484375,-1.40625 0.816407,0 1.308594,-0.52734 1.09375,-1.17188 -0.214844,-0.64453 -1.09375,-1.13671 -1.953125,-1.09375 -0.859375,0.0429 -3.285156,0.14845 -5.390625,0.23438 -4.094342,0.16712 -4.838305,2.23798 -1.006413,2.8014 1.127415,0.16577 1.807754,0.69312 1.511864,1.17187 -0.29589,0.47876 0.541603,0.87048 1.861096,0.87048 1.507514,0 2.399078,-0.5226 2.399078,-1.40625 z m 173.90625,12.62956 c -2.47879,-0.47412 -2.25632,-0.60558 1.875,-1.10796 5.4345,-0.66084 5.74359,-0.58851 2.97858,0.69699 -1.12259,0.5219 -3.30671,0.70684 -4.85358,0.41097 z m -105,-0.91081 c 0.31868,-0.51563 0.97639,-0.9375 1.46158,-0.9375 0.4852,0 0.88217,0.42187 0.88217,0.9375 0,0.51562 -0.65771,0.9375 -1.46158,0.9375 -0.80387,0 -1.20085,-0.42188 -0.88217,-0.9375 z m 119.35547,-1.57792 c 0.67675,-0.27081 1.48535,-0.23751 1.79688,0.074 0.31152,0.31152 -0.2422,0.5331 -1.23047,0.4924 -1.09214,-0.045 -1.31428,-0.26713 -0.56641,-0.5664 z m 5.33203,-1.23458 c 2.80276,-1.20439 5.14491,-1.20439 3.28125,0 -0.77344,0.49984 -2.25,0.8856 -3.28125,0.85725 -1.875,-0.0516 -1.875,-0.0516 0,-0.85725 z m 6.09375,-2.34375 c 1.00927,-1.21609 0.54937,-1.41564 -3.40084,-1.47574 -2.51235,-0.0383 -6.46635,-0.43384 -8.78666,-0.87916 -3.01755,-0.57913 -1.68288,-0.663 4.6875,-0.29455 4.89844,0.28331 9.06383,0.66073 9.25644,0.83872 0.69218,0.63964 -0.78341,3.21698 -1.84181,3.21698 -0.77934,0 -0.75548,-0.39308 0.0854,-1.40625 z M 15.9375,343.06967 c 0,-0.54606 0.421875,-0.73209 0.9375,-0.41342 0.515625,0.31867 0.9375,0.76545 0.9375,0.99283 0,0.22738 -0.421875,0.41342 -0.9375,0.41342 -0.515625,0 -0.9375,-0.44678 -0.9375,-0.99283 z m 214.4375,-0.061 c 0.63594,-0.64071 1.39241,-0.92876 1.68106,-0.64011 0.28864,0.28865 -0.23167,0.81286 -1.15625,1.16492 -1.33613,0.50876 -1.44381,0.40108 -0.52481,-0.52481 z m -9.35938,-1.46739 c -0.90234,-0.2358 -1.64062,-0.87827 -1.64062,-1.4277 0,-0.99282 -8.00123,-0.57317 -13.125,0.68838 -2.07091,0.5099 -2.14226,0.44913 -0.61289,-0.52201 4.13192,-2.62374 16.76183,-2.27423 17.82381,0.49324 0.55664,1.45057 0.37937,1.50626 -2.4453,0.76809 z m -62.10937,-1.34163 c -1.54688,-0.38742 -4.71094,-1.17015 -7.03125,-1.7394 -4.59529,-1.12739 -6.5625,-2.98633 -6.5625,-6.20126 0,-2.41775 -4.25656,-3.12391 -13.125,-2.1774 -4.50763,0.4811 -4.68453,0.5702 -1.40625,0.70836 4.33137,0.18254 11.19203,1.9243 10.46062,2.65571 -0.73282,0.73283 -16.58946,-1.52344 -18.72006,-2.6637 -1.00538,-0.53807 -7.61488,-1.03959 -14.68777,-1.11449 -9.882062,-0.10465 -13.260278,-0.46181 -14.589373,-1.54244 -0.992499,-0.80695 -1.429552,-0.90683 -1.025549,-0.23437 0.479043,0.79737 0.03721,1.17187 -1.38254,1.17187 -1.147618,0 -1.783277,0.3033 -1.412574,0.67401 1.493222,1.49322 -8.436108,2.65659 -15.830254,1.85476 -10.15926,-1.1017 -22.267805,-1.3215 -23.545896,-0.42744 -0.575241,0.4024 -2.895554,0.91054 -5.15625,1.12919 -2.260695,0.21866 -7.168948,0.99467 -10.907229,1.72448 -3.738281,0.7298 -6.796875,1.14898 -6.796875,0.9315 0,-1.2655 3.066967,-3.09935 5.329068,-3.18646 C 36.524326,331.60822 45,329.7841 45,329.0759 c 0,-1.43482 24.383361,-0.99473 27.258342,0.49199 2.129023,1.10095 4.199479,1.29778 8.51531,0.8095 3.294413,-0.37272 5.159766,-0.93606 4.417461,-1.33407 -0.706675,-0.37891 -3.519948,-0.39171 -6.251719,-0.0284 -2.731771,0.36327 -5.152807,0.35963 -5.38008,-0.008 -0.659683,-1.0674 2.317736,-1.48406 10.111121,-1.41495 6.808329,0.0604 9.098599,-0.69786 5.860815,-1.94031 -2.031699,-0.77934 -1.728012,-2.21372 0.46875,-2.21372 1.03125,0 2.7912,0.9162 3.910997,2.036 1.779065,1.77906 3.287522,2.07929 11.953123,2.37903 9.71801,0.33613 9.85125,0.31282 6.63588,-1.16084 -1.8385,-0.84261 -4.41484,-1.28064 -5.85937,-0.9962 -2.48447,0.48919 -3.5348,-0.61857 -1.67583,-1.76748 1.27265,-0.78655 13.1602,1.39783 13.1602,2.41822 0,1.39559 3.01733,0.94649 4.86296,-0.72377 1.61861,-1.46482 1.80958,-1.45533 2.98209,0.14817 0.99453,1.36009 2.74656,1.76307 8.50018,1.95513 3.98609,0.13305 7.47889,0.47336 7.76176,0.75623 0.28287,0.28287 1.39652,-0.1036 2.47476,-0.85884 2.46908,-1.72941 3.98803,-1.78307 2.58398,-0.0913 -1.7507,2.10947 0.98175,3.47222 7.86322,3.92162 3.43045,0.22403 6.9437,0.85935 7.80723,1.41184 1.15104,0.73643 -0.63566,0.86069 -6.6947,0.46564 -8.05223,-0.52502 -10.48027,0.48797 -4.38073,1.82765 1.54096,0.33845 2.80175,0.96245 2.80175,1.38667 0,1.38979 5.79589,2.82972 11.38989,2.82972 3.21047,0 5.48511,0.40875 5.48511,0.98568 0,1.0904 -8.06937,0.9877 -12.65625,-0.16106 z M 17.103533,339.68966 c -2.982172,-1.20229 0.386244,-1.68991 9.288554,-1.34462 7.954234,0.30852 9.026226,0.50986 5.951663,1.11785 -4.170772,0.82476 -13.415753,0.96233 -15.240217,0.22677 z m 182.717397,-0.55623 c -0.60732,-0.60732 -2.25689,-1.15468 -3.6657,-1.21636 -2.85677,-0.12505 -3.4863,-1.61954 -0.89261,-2.11904 1.98476,-0.38222 7.84226,3.09248 6.55465,3.88827 -0.49066,0.30324 -1.38901,0.0545 -1.99634,-0.55287 z M 19.6875,334.50653 c -4.677925,-1.17233 -7.5,-2.75127 -7.5,-4.1962 0,-0.85391 -1.331791,-1.24783 -4.21875,-1.24783 -2.3203125,0 -4.21875,-0.42188 -4.21875,-0.9375 0,-0.51563 1.0297897,-0.9375 2.2884216,-0.9375 3.3255917,0 3.7681631,-1.56263 0.8459739,-2.98695 -5.9955455,-2.92234 -3.8311357,-3.55921 12.0246975,-3.53826 8.420312,0.0112 17.840907,-0.41214 20.934657,-0.9406 3.09375,-0.52846 7.417969,-0.96327 9.609375,-0.96626 2.995424,-0.004 3.984375,-0.37121 3.984375,-1.47914 0,-1.23689 -0.866243,-1.37972 -5.390625,-0.88884 -4.374908,0.47468 -5.054693,0.37529 -3.607764,-0.52747 2.052669,-1.28068 12.813332,-1.58614 26.342139,-0.74776 9.842632,0.60995 15.784079,0.12123 30.46875,-2.50623 7.26953,-1.30071 9.8642,-1.39944 14.11894,-0.53727 2.86697,0.58095 8.45681,1.05628 12.42187,1.05628 5.62582,0 7.20919,0.2944 7.20919,1.34043 0,1.60705 14.35836,1.44567 17.42558,-0.19585 1.00485,-0.53778 5.31486,-1.28204 9.57781,-1.6539 5.96072,-0.51996 7.95363,-1.05505 8.62892,-2.31685 1.71934,-3.2126 19.94528,-5.72702 23.81145,-3.28498 1.07936,0.68178 3.43905,1.48698 5.24374,1.78934 1.80469,0.30236 2.74907,0.307 2.09863,0.0103 -4.19421,-1.91308 -3.26502,-6.9385 1.28292,-6.9385 6.83321,0 2.82633,-11.2827 -4.55343,-12.82172 -1.41796,-0.2957 -2.57812,-0.89635 -2.57812,-1.33476 0,-0.43842 0.94922,-0.45563 2.10937,-0.0383 1.16016,0.41736 4.85157,0.51239 8.20313,0.21117 6.65927,-0.59849 20.66726,1.00148 17.17511,1.96172 -1.12399,0.30906 -3.33771,0.29277 -4.91937,-0.0362 -4.06299,-0.84512 -15.19372,-0.15339 -14.54045,0.90363 0.2966,0.47989 0.93199,0.62983 1.41199,0.33317 0.47999,-0.29666 0.87272,0.11834 0.87272,0.92221 0,0.80386 0.44678,1.46158 0.99283,1.46158 0.54606,0 0.75011,0.39272 0.45346,0.87272 -0.29666,0.48 -0.0935,1.14831 0.45156,1.48515 0.545,0.33683 0.75025,1.3707 0.4561,2.2975 -0.7234,2.27922 1.23554,2.92866 10.3023,3.41547 6.3672,0.34187 7.146,0.23055 5.15625,-0.73705 -3.14631,-1.53003 -3.07752,-1.45902 -2.42928,-2.5079 0.65231,-1.05546 6.17928,1.36828 6.17928,2.70979 0,2.69778 -11.67709,3.55567 -18.51562,1.3603 -1.27752,-0.41012 -2.10938,-0.28925 -2.10938,0.3065 0,1.98454 13.2548,3.60214 17.20619,2.09982 1.98342,-0.7541 2.24694,-0.59085 2.24694,1.39197 0,1.87059 -0.28156,2.09558 -1.68352,1.34527 -0.92594,-0.49555 -4.35368,-0.86528 -7.61719,-0.82162 -6.74106,0.0902 -10.47039,-0.57808 -10.93057,-1.95863 -0.17358,-0.52079 -1.33513,-0.94685 -2.58122,-0.94685 -3.51785,0 -2.73158,2.53669 1.44702,4.66845 4.40449,2.247 7.53735,2.44975 7.53735,0.4878 0,-1.6554 2.40503,-1.88649 3.37077,-0.3239 0.45001,0.72813 0.238,0.83234 -0.64779,0.31844 -0.77975,-0.45237 -0.9975,-0.41586 -0.53395,0.0895 0.43053,0.46938 2.75085,0.91669 5.15625,0.994 11.29785,0.36314 17.26527,0.19221 19.21872,-0.55048 1.17073,-0.44512 7.16886,-0.52296 13.32918,-0.173 l 11.20057,0.6363 -6.5625,0.78203 c -12.94565,1.54266 -34.62071,2.41872 -36.16895,1.46186 -0.57439,-0.35501 -2.73312,-0.2168 -4.79717,0.30711 -2.86414,0.72701 -3.92778,0.66948 -4.49166,-0.24289 -0.45804,-0.74112 -1.22406,-0.89261 -2.01553,-0.3986 -1.83447,1.14502 -3.62044,1.29197 -3.62044,0.2979 0,-0.47001 0.49219,-0.85455 1.09375,-0.85455 0.60156,0 0.87988,-0.21386 0.61849,-0.47526 -0.80613,-0.80612 -6.40136,0.65168 -5.86044,1.5269 0.27987,0.45285 0.0831,0.82336 -0.43738,0.82336 -0.52044,0 -1.28362,-0.52734 -1.69596,-1.17188 -0.76313,-1.19285 -5.53033,-3.30043 -9.51481,-4.20648 -3.51229,-0.79869 -2.18842,2.8192 1.46544,4.00478 4.35734,1.41384 4.41035,1.92925 0.15669,1.52361 -2.05908,-0.19637 -3.52074,-0.58008 -3.24812,-0.85269 1.03827,-1.03828 -6.93819,-4.10213 -9.93178,-3.81492 -3.72311,0.35721 -3.97591,1.89702 -0.4723,2.87695 1.38265,0.38672 3.67408,1.0297 5.09205,1.42883 1.41796,0.39914 2.58458,1.13742 2.59247,1.64062 0.0301,1.91894 1.5887,3.25868 3.79098,3.25868 1.25863,0 2.28842,-0.38836 2.28842,-0.86301 0,-1.30381 4.97961,-2.12782 7.41479,-1.22699 1.75732,0.65007 0.8113,1.08007 -5.23446,2.37924 -11.39495,2.44865 -15.05243,1.68186 -10.56046,-2.21399 l 2.10452,-1.82526 -2.1747,0 c -1.19608,0 -1.9003,0.27439 -1.56494,0.60975 1.87503,1.87503 -4.41666,5.14609 -9.55911,4.96978 -6.83448,-0.23431 -7.64719,-0.0429 -4.80064,1.13042 1.28906,0.53135 5.08594,0.9822 8.4375,1.00188 l 6.09375,0.0358 -4.86435,0.59992 c -2.6754,0.32995 -5.13669,0.87226 -5.46955,1.20512 -1.24098,1.24096 9.55837,1.85221 13.58207,0.76875 2.2449,-0.6045 5.5673,-0.82036 7.38312,-0.47971 6.04795,1.1346 1.28754,2.04885 -11.38656,2.18681 -6.80335,0.0741 -16.12264,0.41029 -20.70952,0.74718 -6.13753,0.45078 -8.16532,0.33022 -7.67905,-0.45658 0.36341,-0.58803 0.21398,-1.06913 -0.33208,-1.06913 -0.54606,0 -0.99283,0.45703 -0.99283,1.01562 0,0.5586 -0.52734,0.82227 -1.17188,0.58594 -0.64453,-0.23633 -1.0664,-0.90429 -0.9375,-1.48437 0.12891,-0.58008 -0.2124,-1.05469 -0.75845,-1.05469 -0.54606,0 -0.70545,-0.46498 -0.35422,-1.03329 0.45907,-0.74279 -2.88596,-0.8857 -11.89779,-0.50832 -12.37944,0.51841 -12.47185,0.50737 -7.38016,-0.88191 3.49998,-0.95499 9.9745,-1.43392 20.15625,-1.49099 12.32678,-0.0691 14.1324,-0.24025 10.13171,-0.96027 -3.63063,-0.65342 -4.73724,-1.21767 -4.35282,-2.21945 0.67703,-1.7643 -4.6593,-1.85718 -6.41505,-0.11164 -1.95902,1.94761 -10.08257,1.8924 -14.36384,-0.0976 -4.07054,-1.89207 -16.40625,-2.84917 -16.40625,-1.27292 0,0.50609 0.52734,1.11714 1.17188,1.35789 0.79533,0.29708 0.64471,0.65564 -0.46875,1.11592 -1.98345,0.81992 -4.78604,-0.1003 -4.03019,-1.32328 0.29799,-0.48215 -0.31422,-1.14831 -1.36044,-1.48037 -1.04622,-0.33206 -1.66027,-0.99524 -1.36453,-1.47375 0.76839,-1.24328 -4.03668,-1.04871 -8.72333,0.35325 -2.77424,0.82988 -3.695256,1.49363 -3.01561,2.17328 0.67963,0.67963 0.10995,0.97847 -1.865283,0.97847 -3.241809,0 -4.255284,0.66204 -3.322913,2.17065 0.470935,0.76198 1.0065,0.74628 1.975519,-0.0579 1.637644,-1.35913 19.214077,-0.36866 23.113027,1.30247 3.89843,1.6709 3.0975,2.85838 -1.40625,2.08494 -2.19141,-0.37633 -5.35547,-0.64308 -7.03125,-0.59276 -1.67579,0.0503 -3.04688,-0.30824 -3.04688,-0.79682 0,-0.48857 -1.58203,-0.72139 -3.51562,-0.51737 -1.9336,0.20402 -7.945317,0.63168 -13.35938,0.95034 -10.987603,0.64673 -12.566465,0.95984 -11.722842,2.32485 1.022618,1.65463 -13.761133,1.11665 -15.933408,-0.57981 -1.734769,-1.3548 -1.427736,-1.41476 4.105265,-0.80161 4.298575,0.47635 5.798896,0.36924 5.335296,-0.38088 -0.445071,-0.72014 1.042912,-1.04803 4.800986,-1.05793 3.709325,-0.01 5.008131,-0.29127 4.072972,-0.88275 -1.063064,-0.67237 -7.63734,-0.53674 -11.283269,0.23278 -0.257812,0.0544 -2.513515,-0.2277 -5.012673,-0.62694 -7.748024,-1.23769 -12.207229,-1.46257 -13.226874,-0.66702 -1.877128,1.46459 -14.217138,2.42659 -30.325278,2.36409 -15.0356669,-0.0583 -16.0462019,0.0431 -13.8281247,1.38902 1.3161227,0.79858 2.3929497,2.198 2.3929497,3.10982 0,1.72662 4.096516,2.43505 5.060586,0.87515 0.636566,-1.02998 12.949036,0.62085 14.158164,1.89831 0.656347,0.69343 -1.420551,0.83919 -6.925364,0.48603 -8.118704,-0.52085 -9.35216,2.09835 -1.631484,3.46441 1.481233,0.26208 2.870521,0.65388 3.087307,0.87067 0.931249,0.93125 -2.293259,1.20128 -5.311709,0.44482 z m 146.48437,-10.27246 c 3.48463,-1.832 1.30235,-2.54649 -7.26319,-2.37798 -9.73345,0.19148 -10.12859,0.35993 -6.32888,2.69807 2.69897,1.6608 10.15842,1.48514 13.59207,-0.32009 z M 92.34375,319.6875 c 1.615734,-0.6943 1.486097,-0.81682 -0.9375,-0.88597 -1.607793,-0.0458 -2.34352,-0.37859 -1.717625,-0.77675 0.602181,-0.38308 -3.827507,-0.7183 -9.84375,-0.74493 -6.016244,-0.0266 -13.89175,-0.3915 -17.501125,-0.81083 -8.094134,-0.94034 -7.471162,0.14805 1.119023,1.95506 4.309517,0.90653 8.699533,1.14151 13.523115,0.72381 4.869273,-0.42164 7.348214,-0.28501 7.789703,0.42932 0.752017,1.21679 4.854078,1.27657 7.568159,0.11029 z m 85.58436,-2.67651 c 0.30136,-0.91418 -0.13116,-1.09573 -1.54296,-0.64764 -1.09605,0.34788 -3.31687,-0.007 -5.03279,-0.80297 -2.76883,-1.28527 -4.53941,-1.35636 -14.74299,-0.59198 -3.29352,0.24673 3.64201,2.32696 9.49865,2.84901 9.79424,0.87305 11.30035,0.77029 11.82009,-0.80642 z m 1.56142,-2.88099 c 0.29574,-0.47851 -0.31218,-1.11132 -1.35092,-1.40625 -1.03874,-0.29494 -2.73236,-0.77561 -3.76361,-1.06818 -1.2757,-0.36191 -1.875,-0.0843 -1.875,0.86876 0,2.00463 5.90464,3.36106 6.98953,1.60567 z m -1.62937,20.39483 c -4.70773,-1.00655 -9.52842,-3.55721 -8.51475,-4.5052 0.92274,-0.86297 18.15459,0.97476 18.15459,1.93613 0,2.26244 -4.9295,3.57618 -9.63984,2.56907 z m 5.88984,-1.65412 c -2.69887,-1.5781 -11.07212,-2.00376 -8.96144,-0.45556 1.00089,0.73417 3.74308,1.32203 6.09375,1.30634 2.9041,-0.0194 3.82323,-0.29205 2.86769,-0.85078 z m 19.29747,1.94417 c -0.27596,-0.44651 2.12469,-1.06841 5.33477,-1.382 16.62818,-1.62438 20.83622,-2.44053 22.39303,-4.34313 1.99903,-2.44305 2.61984,-2.41139 1.96307,0.10009 -0.4847,1.85349 -0.28652,1.94561 2.66589,1.23924 1.75424,-0.41971 7.83014,-0.76005 13.50202,-0.75634 5.67187,0.004 9.04687,-0.16453 7.5,-0.37388 -4.83236,-0.654 -4.96178,-2.11136 -0.1875,-2.11136 2.64539,0 4.40625,0.42253 4.40625,1.05732 0,0.71246 1.25134,0.85722 3.83643,0.44385 2.86065,-0.45743 3.737,-0.3152 3.44553,0.55921 -0.57794,1.73379 -5.77892,2.64694 -15.00369,2.63421 -4.50475,-0.007 -11.88756,0.58892 -16.40625,1.32254 -10.05384,1.63226 -32.76038,2.72535 -33.44955,1.61025 z m -9.09897,-2.48822 c -5.03547,-1.59882 -7.5141,-3.8516 -5.21038,-4.73561 0.79772,-0.30612 3.05043,0.53186 5.01071,1.8639 1.95879,1.33103 4.58849,2.42005 5.8438,2.42005 2.85005,0 2.28165,-0.6743 -1.08266,-1.28436 -4.67265,-0.84731 -5.99067,-2.7809 -2.51512,-3.68978 1.13058,-0.29565 2.12791,0.005 2.40368,0.72296 0.60295,1.57127 5.16519,2.49156 8.77375,1.76985 3.00044,-0.60009 2.97123,-2.20617 -0.0401,-2.20617 -1.00082,0 -1.81967,-0.47106 -1.81967,-1.04679 0,-0.68535 0.89019,-0.80695 2.57812,-0.35217 1.41797,0.38205 6.79688,0.95858 11.95313,1.28117 6.956,0.4352 8.68944,0.77768 6.71808,1.32731 -1.46131,0.40741 -5.25819,0.46564 -8.4375,0.1294 -5.38123,-0.56912 -5.65105,-0.50902 -3.90558,0.87005 1.85688,1.46708 1.85461,1.48169 -0.23438,1.51122 -1.16015,0.0164 -2.10937,0.34622 -2.10937,0.73293 0,0.38672 -1.37109,0.73373 -3.04688,0.77114 -1.67578,0.0374 -4.73437,0.34307 -6.79687,0.67929 -2.34413,0.38213 -5.37433,0.0956 -8.08275,-0.76439 z m 76.989,-2.27133 c 0,-0.48519 0.42187,-1.14291 0.9375,-1.46158 0.51562,-0.31867 0.9375,0.0783 0.9375,0.88217 0,0.80387 -0.42188,1.46158 -0.9375,1.46158 -0.51563,0 -0.9375,-0.39698 -0.9375,-0.88217 z M 31.875,327.1875 c -0.773438,-0.49984 -2.963383,-0.91525 -4.866547,-0.92315 -1.903163,-0.007 -3.754998,-0.49119 -4.115191,-1.07399 -0.652143,-1.05519 5.257116,-0.76735 13.901069,0.67712 3.911958,0.65372 8.548493,-0.17932 7.793877,-1.40032 -0.516504,-0.83572 4.671989,-1.9395 9.198459,-1.95684 2.287851,-0.008 2.517365,0.20121 1.525833,1.39593 -0.641896,0.77344 -2.486521,1.42128 -4.099167,1.43964 -1.612646,0.0184 -5.463333,0.64459 -8.557083,1.39161 -6.602729,1.59429 -8.864503,1.6887 -10.78125,0.45 z m 214.19661,-0.0358 c -0.3065,-0.49593 0.0436,-0.90169 0.77788,-0.90169 0.73433,0 2.47242,-0.89457 3.86241,-1.98794 2.21584,-1.74298 3.07545,-1.87956 6.97605,-1.10831 3.10001,0.61294 6.13821,0.52332 10.02105,-0.29562 7.39529,-1.55975 11.20988,-1.56858 12.48769,-0.029 0.85717,1.03282 0.22924,1.27561 -3.40084,1.31496 -10.6026,0.11494 -23.36636,0.86949 -24.28216,1.43548 -2.60619,1.61072 -5.9186,2.41903 -6.44208,1.57203 z M 132.1875,325.48501 c 1.80064,-1.13936 13.125,-1.94649 13.125,-0.93546 0,0.41963 -1.8457,0.76295 -4.10156,0.76295 -2.25586,0 -5.52539,0.23902 -7.26563,0.53116 -2.19533,0.36854 -2.73351,0.25873 -1.75781,-0.35865 z m 79.43723,-0.002 c -2.97289,-0.34172 -2.54833,-2.0083 0.53998,-2.11958 1.80851,-0.0652 1.74586,-0.18656 -0.52409,-1.01562 -2.27725,-0.83172 -3.10202,-2.32893 -2.66591,-4.83942 0.0738,-0.42505 -0.26893,-0.52364 -0.76171,-0.21909 -0.49277,0.30456 -1.12515,0.18287 -1.40528,-0.2704 -1.0741,-1.73793 15.50825,-2.90758 17.55248,-1.23808 0.60971,0.49793 2.37417,0.73013 3.92105,0.516 7.31729,-1.01292 10.78902,-1.10525 11.28659,-0.30016 0.29855,0.48305 1.38656,0.87829 2.41781,0.87829 1.2505,0 1.64051,-0.39032 1.17097,-1.17188 -0.40567,-0.67522 0.0329,-0.5759 1.03488,0.23438 1.5865,1.28298 1.0476,1.44904 -6.14817,1.89453 -4.33789,0.26856 -7.25427,0.76843 -6.48083,1.11084 2.23036,0.98738 19.71357,1.47879 23.35921,0.65657 3.63032,-0.81878 5.02176,-0.30267 2.86364,1.06217 -0.7585,0.47969 -3.72051,0.87864 -6.58223,0.88653 -2.86171,0.007 -5.65779,0.46902 -6.2135,1.02474 -1.57025,1.57024 -7.81064,2.68355 -10.02656,1.78877 -1.78168,-0.71944 -1.69444,-0.813 0.81819,-0.87753 7.94226,-0.20397 9.22194,-2.33491 1.51882,-2.52915 -3.02697,-0.0763 -6.50544,-0.68324 -7.72995,-1.3487 -2.54458,-1.38285 -3.77157,-1.57524 -11.73332,-1.83976 -6.63802,-0.22055 -8.50024,0.46073 -6.81381,2.49275 0.77616,0.9352 2.76366,1.27719 6.55285,1.12755 3.85657,-0.15231 5.93214,0.21552 7.1346,1.26437 0.93269,0.81353 2.32862,1.27052 3.10206,1.01554 0.94819,-0.31259 1.10088,-0.15097 0.46875,0.49616 -0.95922,0.98199 -11.99162,1.85642 -16.65652,1.32018 z m 6.34402,-2.04563 c -0.31868,-0.51563 -1.29279,-0.93104 -2.16471,-0.92315 -1.36619,0.0124 -1.39094,0.13996 -0.17904,0.92315 1.83597,1.1865 3.07704,1.1865 2.34375,0 z m -15.91432,0.97502 c -0.25896,-0.41902 0.45521,-1.00402 1.58705,-1.3 3.71063,-0.97035 0.70614,-2.0125 -4.96348,-1.72165 -7.34992,0.37705 -7.18712,-1.32961 0.20872,-2.18799 4.81832,-0.55922 5.90225,-0.41756 6.62011,0.86517 0.47213,0.84364 1.2252,1.30719 1.67351,1.03013 0.87612,-0.54148 2.35864,1.23784 1.63461,1.96187 -0.98939,0.98938 -6.32519,2.05683 -6.76052,1.35247 z m -17.36693,-2.27198 c 0,-0.19771 1.04192,-0.55863 2.31538,-0.80207 1.27345,-0.24344 2.09231,-0.0817 1.81967,0.35946 -0.48008,0.77678 -4.13505,1.168 -4.13505,0.44261 z m 41.25,-1.51554 c 0,-0.51563 0.65771,-0.9375 1.46158,-0.9375 0.80387,0 1.20085,0.42187 0.88217,0.9375 -0.31868,0.51562 -0.97639,0.9375 -1.46158,0.9375 -0.4852,0 -0.88217,-0.42188 -0.88217,-0.9375 z m 39.57016,-1.53444 c 0.84395,-0.84395 2.19997,-1.27907 3.0134,-0.96693 2.54845,0.97793 1.61391,2.50137 -1.53446,2.50137 -2.79046,0 -2.89987,-0.11352 -1.47894,-1.53444 z M 127.5,318.75 c -1.80469,-0.37987 -2.85938,-0.7809 -2.34375,-0.89118 4.40688,-0.9425 5.97395,-0.85155 7.01878,0.4074 1.33855,1.61287 0.9031,1.65792 -4.67503,0.48378 z m 119.63073,-3.58904 c -0.26396,-0.4271 1.58841,-0.59658 4.11639,-0.37663 3.03902,0.26442 5.61399,-0.10776 7.59989,-1.09846 3.64347,-1.8176 3.65299,-1.81812 3.65299,-0.20146 0,2.20103 -14.09488,3.73856 -15.36927,1.67655 z m -94.05154,-6.06622 c 0.31102,-0.81048 0.0619,-1.67849 -0.55373,-1.9289 -0.61557,-0.25043 -0.20732,-0.48862 0.90721,-0.52932 2.24678,-0.082 2.50825,2.78942 0.3204,3.5187 -0.80898,0.26967 -1.04298,-0.0986 -0.67388,-1.06048 z m 112.06265,0.0759 c 0.49995,-0.49995 1.69209,-0.74301 2.6492,-0.54014 1.2889,0.27321 1.05315,0.50895 -0.909,0.90901 -1.71077,0.3488 -2.32721,0.21814 -1.7402,-0.36887 z m -206.255121,-0.4361 c 0.676758,-0.27081 1.485351,-0.23751 1.796875,0.074 0.311523,0.31152 -0.242188,0.5331 -1.230469,0.4924 -1.092134,-0.045 -1.314281,-0.26713 -0.566406,-0.5664 z m 4.160156,-0.006 c 0.902344,-0.2358 2.378906,-0.2358 3.28125,0 0.902344,0.23581 0.164062,0.42875 -1.640625,0.42875 -1.804688,0 -2.542969,-0.19294 -1.640625,-0.42875 z m 80.156245,0 c -2.96856,-0.77576 -1.71416,-1.69324 2.65724,-1.94351 3.83507,-0.21957 4.14446,-0.0937 2.87895,1.17187 -1.42175,1.42176 -2.48263,1.56962 -5.53619,0.77164 z m -66.503901,-0.93167 c 0.676758,-0.27081 1.485351,-0.23752 1.796875,0.074 0.311523,0.31152 -0.242188,0.5331 -1.230469,0.49239 -1.092134,-0.045 -1.314281,-0.26713 -0.566406,-0.5664 z m 42.139841,-0.0227 c 1.16616,-0.22424 2.85366,-0.21573 3.75,0.0189 0.89633,0.23465 -0.0579,0.41813 -2.12031,0.40772 -2.0625,-0.0104 -2.79586,-0.2024 -1.62969,-0.42664 z m 7.80156,0.2838 c 0.21485,-0.20859 1.86719,-0.51588 3.67188,-0.68287 1.80469,-0.16699 3.49219,-0.58245 3.75,-0.92324 0.25781,-0.3408 1.01273,-0.0335 1.67759,0.68286 1.02157,1.10073 0.38013,1.30251 -4.14063,1.30251 -2.9422,0 -5.17368,-0.17066 -4.95884,-0.37926 z m 101.17255,-0.32403 c 3.5e-4,-0.38671 1.11972,-0.76799 2.48745,-0.84727 1.77939,-0.10314 2.11256,0.0928 1.17121,0.68877 -1.61443,1.02212 -3.65956,1.11072 -3.65866,0.1585 z m 21.99203,-0.29674 c -0.95271,-1.54151 -0.25524,-1.73649 4.1148,-1.15034 2.69203,0.36108 3.62462,0.80549 2.79456,1.33171 -1.76859,1.12121 -6.17582,1.00551 -6.90936,-0.18137 z M 81.328125,306.87911 c 0.644531,-0.26007 1.699219,-0.26007 2.34375,0 0.644531,0.26007 0.117187,0.47287 -1.171875,0.47287 -1.289063,0 -1.816406,-0.2128 -1.171875,-0.47287 z m 24.375005,-1.875 c 0.64453,-0.26007 1.69921,-0.26007 2.34375,0 0.64453,0.26007 0.11718,0.47287 -1.17188,0.47287 -1.28906,0 -1.81641,-0.2128 -1.17187,-0.47287 z m 56.02499,-2.18183 c -1.47685,-1.5415 -2.36364,-3.12353 -1.97065,-3.51563 0.75048,-0.74876 5.24253,3.9066 5.24253,5.43312 0,1.33559 -0.354,1.12812 -3.27188,-1.91749 z m -105.243745,1.21897 c 0.902344,-0.2358 2.378906,-0.2358 3.28125,0 0.902344,0.23581 0.164062,0.42875 -1.640625,0.42875 -1.804688,0 -2.542969,-0.19294 -1.640625,-0.42875 z m 9.375,0 c 0.902344,-0.2358 2.378906,-0.2358 3.28125,0 0.902344,0.23581 0.164062,0.42875 -1.640625,0.42875 -1.804688,0 -2.542969,-0.19294 -1.640625,-0.42875 z m 44.531255,0.0253 c 0.64453,-0.26008 1.69921,-0.26008 2.34375,0 0.64453,0.26007 0.11718,0.47286 -1.17188,0.47286 -1.28906,0 -1.81641,-0.21279 -1.17187,-0.47286 z m 54.6596,-1.66939 c -2.19254,-2.33381 -1.54292,-3.51487 0.69977,-1.27218 0.875,0.875 1.125,0.79791 1.125,-0.34691 0,-0.95961 -1.54991,-1.89685 -4.45313,-2.69281 -18.00761,-4.93708 -34.15673,-23.91319 -24.671,-28.9898 3.15469,-1.68833 4.6742,-1.10115 11.13489,4.30281 3.46746,2.90031 10.7265,7.52811 16.13123,10.284 10.87226,5.54381 11.08992,6.31374 0.74201,2.62471 -9.25569,-3.29967 -15.41148,-6.92418 -20.36742,-11.99232 -4.50519,-4.60716 -5.70408,-4.72161 -5.70408,-0.54452 0,14.16358 15.74459,24.2383 38.90625,24.89549 5.67187,0.16094 10.76953,0.31607 11.32812,0.34473 1.90388,0.0977 1.02355,2.86429 -0.9375,2.94625 -5.3741,0.22461 -18.11836,1.64309 -19.78634,2.20228 -1.35594,0.45457 -2.53698,-0.0471 -4.1478,-1.76168 z m -91.222105,0.73193 c 0.644531,-0.26007 1.699219,-0.26007 2.34375,0 0.644531,0.26007 0.117187,0.47287 -1.171875,0.47287 -1.289063,0 -1.816406,-0.2128 -1.171875,-0.47287 z m 9.609375,-0.30896 c 5.331947,-0.78561 17.48638,-1.21465 16.79688,-0.59292 -0.21485,0.19372 -5.242193,0.57732 -11.17188,0.85244 -7.308938,0.3391 -9.120579,0.25552 -5.625,-0.25952 z m 42.01172,0.28943 c 0.67675,-0.27081 1.48535,-0.23751 1.79688,0.074 0.31152,0.31152 -0.2422,0.5331 -1.23047,0.4924 -1.09214,-0.045 -1.31428,-0.26713 -0.56641,-0.5664 z m 106.8164,0.0195 c 0.64454,-0.26007 1.69922,-0.26007 2.34375,0 0.64454,0.26008 0.11719,0.47287 -1.17187,0.47287 -1.28906,0 -1.81641,-0.21279 -1.17188,-0.47287 z m 15.70313,-0.31658 c -3.71346,-0.50933 -4.10307,-0.70763 -1.875,-0.95431 4.30126,-0.4762 10.2087,0.0667 11.20312,1.02948 0.99209,0.96056 -1.94957,0.93686 -9.32812,-0.0752 z M 2.6367188,302.17208 c 0.6767578,-0.27081 1.4853515,-0.23751 1.796875,0.074 0.3115234,0.31152 -0.2421876,0.5331 -1.2304688,0.4924 -1.092134,-0.045 -1.3142807,-0.26713 -0.5664062,-0.5664 z M 157.03789,301.88573 c -0.32845,-0.53143 0.0479,-0.68859 0.88217,-0.36844 1.62414,0.62324 1.9213,1.29521 0.57277,1.29521 -0.48519,0 -1.13992,-0.41705 -1.45494,-0.92677 z M 260.625,300.95472 c 0,-1.13752 6.50729,-1.25837 8.24959,-0.15319 0.746,0.4732 -0.61694,0.83776 -3.51563,0.94035 -2.69758,0.0955 -4.73396,-0.24313 -4.73396,-0.78716 z m -24.14218,-0.73039 c -1.83584,-0.30886 -1.93526,-0.53082 -0.76294,-1.70314 1.08287,-1.08286 1.8216,-1.1322 3.75594,-0.25086 1.92269,0.87603 3.53783,0.783 8.01441,-0.4616 6.61564,-1.83931 9.47715,-1.86483 14.54102,-0.12969 l 3.75,1.28494 -5.31121,-0.5176 c -2.92117,-0.28467 -8.40554,-9.3e-4 -12.1875,0.62968 -9.23576,1.54091 -9.38154,1.55509 -11.79972,1.14827 z M 127.03125,298.56291 C 100.50553,292.67387 59.414953,266.21004 66.224099,259.4009 66.512474,259.11252 65.57544,256.72144 64.1418,254.08736 l -2.606618,-4.78921 1.891031,-1.89103 1.89103,-1.89103 3.992579,3.3357 c 5.017191,4.19175 4.692343,4.23516 10.078326,-1.34673 3.018617,-3.12842 5.287043,-4.68412 6.834999,-4.6875 3.754641,-0.008 26.316273,-23.54758 23.517153,-24.53631 -1.09416,-0.38649 -2.84866,-10.88918 -2.85822,-17.10964 -0.008,-5.56726 -4.47803,-14.35105 -10.984661,-21.588 -8.960699,-9.96645 -14.924349,-20.82238 -18.497174,-33.67134 -1.804194,-6.48842 -3.541431,-10.51608 -5.827851,-13.51145 -3.649342,-4.7809 -7.239884,-11.56409 -8.173064,-15.44042 -0.340397,-1.41398 -1.877311,-4.55516 -3.415366,-6.98042 -1.538055,-2.42526 -2.796464,-4.92817 -2.796464,-5.56204 0,-0.63385 -1.761979,-2.13329 -3.915507,-3.33208 -2.15353,-1.198779 -4.11069,-2.777651 -4.349246,-3.508601 -0.310396,-0.951065 0.46981,-0.779868 2.743632,0.601997 5.048505,3.068124 8.197772,3.299334 16.812088,1.234322 C 77.512894,97.24785 78.75,97.130297 78.75,98.4375 c 0,0.515625 -0.777705,0.9375 -1.728234,0.9375 -0.950529,0 -4.180636,0.84375 -7.178016,1.875 -2.99738,1.03125 -6.67809,1.875 -8.179355,1.875 l -2.729571,0 1.815842,2.57813 c 0.998713,1.41796 2.130157,3.63281 2.514321,4.92187 1.378984,4.62718 9.14767,19.27499 11.684603,22.03125 2.417103,2.62607 6.451414,14.06775 5.348974,15.17018 -0.906223,0.90623 7.627309,19.04857 8.959788,19.04857 0.407906,0 0.754836,0.52734 0.770953,1.17187 0.01612,0.64454 2.335259,3.70313 5.153645,6.79688 7.4916,8.22355 13.56705,20.36287 13.56705,27.10824 0,4.36121 0.37762,5.57624 2.23494,7.19117 1.22923,1.06879 2.98079,3.59726 3.89238,5.6188 1.47779,3.27713 2.01925,3.67554 4.99527,3.67554 l 3.33783,0 -3.018,-2.57813 c -4.21164,-3.59779 -4.95728,-7.96368 -1.72212,-10.08345 2.30171,-1.50813 2.35237,-1.71611 1.03729,-4.25918 -1.61516,-3.12336 -1.69485,-3.70424 -0.50827,-3.70424 0.48088,0 1.14212,0.84375 1.46943,1.875 1.29911,4.09314 3.82932,-1.66462 6.07246,-13.81853 3.4577,-18.73469 11.76696,-40.50721 20.68968,-54.21256 l 3.70268,-5.68736 -1.87303,-3.87674 c -2.10742,-4.36185 -2.29416,-6.41664 -0.93007,-10.2344 0.89261,-2.49822 0.86559,-2.53927 -0.50577,-0.76873 -1.50498,1.94306 -3.19926,0.84081 -3.23535,-2.1048 -0.008,-0.64454 -0.43623,-1.17188 -0.95185,-1.17188 -1.42382,0 -1.11988,2.43156 0.46875,3.75 1.56944,1.30252 1.82392,4.45081 0.52562,6.50258 -0.5654,0.89353 -3.47715,1.56719 -8.65752,2.00297 -4.29308,0.36116 -9.58868,1.17521 -11.768,1.809 -4.57615,1.33086 -11.00401,0.54158 -9.94619,-1.2213 0.47411,-0.79011 0.23842,-0.77121 -0.79262,0.0636 -0.80706,0.65342 -2.12106,0.93721 -2.91997,0.63063 -1.88701,-0.7241 -5.88048,3.24624 -5.50348,5.47161 0.32317,1.90754 -3.34668,10.05346 -4.52922,10.05346 -0.422323,0 1.30708,4.11328 3.84312,9.14062 4.1472,8.22123 8.79387,19.81562 11.2716,28.125 0.4997,1.67579 1.11449,3.04688 1.36621,3.04688 1.9073,0 5.74844,-4.10002 8.90557,-9.50576 3.26845,-5.59637 5.60272,-8.01683 5.52463,-5.72862 -0.0994,2.91267 -11.65068,17.53697 -13.12983,16.62282 -1.12294,-0.69402 1.47505,5.16721 4.475,10.09593 1.95992,3.22001 1.99781,3.51563 0.45064,3.51563 -2.82962,0 -6.96818,-8.18827 -15.16276,-30 -1.64661,-4.38281 -3.88292,-10.28906 -4.96959,-13.125 -1.08666,-2.83594 -3.482116,-7.26791 -5.323235,-9.84883 -4.917507,-6.89351 -6.25668,-9.6424 -7.956285,-16.3317 -0.84185,-3.31335 -3.418792,-9.82976 -5.726538,-14.48091 -4.397018,-8.861989 -4.762251,-9.96358 -3.30344,-9.96358 2.598697,0 11.293396,17.84659 11.295778,23.18552 4.07e-4,0.91203 1.281626,4.36581 2.847151,7.67506 l 2.846418,6.01683 2.713081,-3.20433 c 1.97049,-2.32728 2.56467,-3.82161 2.17085,-5.45957 -0.37132,-1.54443 -0.013,-2.64218 1.13672,-3.48293 4.76419,-3.48365 -2.59688,-19.10558 -9.002576,-19.10558 -4.34097,0 -9.232666,-3.01334 -16.196628,-9.977297 -3.521455,-3.521457 -6.885126,-6.42057 -7.474826,-6.442476 -3.133021,-0.11638 -7.175554,-1.731581 -8.709344,-3.479833 -1.700658,-1.938452 -1.697723,-1.965124 0.137164,-1.246749 1.03125,0.403745 2.608537,0.945118 3.505081,1.203052 0.896544,0.257935 1.454861,0.752482 1.240705,1.098994 -0.214157,0.346513 0.423401,0.630024 1.416794,0.630024 2.541798,0 2.229881,-0.612491 -1.94383,-3.816965 -2.014748,-1.546875 -3.682714,-3.366057 -3.706589,-4.042627 -0.06847,-1.940443 8.012345,4.33114 12.797512,9.932239 6.244003,7.308682 13.729997,12.552458 18.723315,13.115278 3.907087,0.44039 8.748262,4.23014 8.748262,6.84829 0,0.47607 0.53277,0.86557 1.18394,0.86557 0.65117,0 1.60039,0.94922 2.10938,2.10938 1.09402,2.49365 18.7015,3.33451 19.63094,0.9375 0.24992,-0.64454 1.20591,-1.18329 2.12445,-1.19724 2.58975,-0.0394 13.53448,-4.96478 18.26634,-8.22039 5.28246,-3.634419 6.39881,-2.9753 1.91709,1.1319 -3.05644,2.80101 -3.55414,5.23885 -1.06954,5.23885 1.417,0 5.5249,-4.77182 5.5249,-6.41783 0,-0.8011 1.31592,-4.943123 2.92427,-9.2045 l 2.92427,-7.747961 -2.00575,-7.767979 c -2.51626,-9.745102 -9.57963,-27.921377 -10.8548,-27.932802 -0.52621,-0.0047 -3.06612,-1.030503 -5.64424,-2.279533 -4.68318,-2.268868 -4.68817,-2.269173 -5.40826,-0.330837 -0.66896,1.800678 -0.84137,1.830975 -2.39878,0.421533 -1.23188,-1.114824 -3.21144,-1.460794 -7.4453,-1.301215 -4.41845,0.166536 -6.14658,-0.161102 -7.38916,-1.400929 -2.0166,-2.012131 -1.13719,-3.099886 1.40582,-1.738903 4.46365,2.388868 11.03371,1.284587 12.0981,-2.033419 0.94937,-2.959462 0.98016,-2.974497 1.07312,-0.524078 0.0527,1.387538 0.55479,2.806524 1.11589,3.153302 0.72583,0.448586 0.82803,-2.079871 0.35419,-8.763201 -1.01994,-14.386446 2.21248,-23.698273 8.19024,-23.594112 2.06682,0.03601 2.04964,0.09423 -0.42399,1.436191 -3.37504,1.830994 -3.2925,2.020471 1.40625,3.227641 20.81591,5.347881 48.99765,22.325761 48.2181,29.048632 -1.45875,12.580354 -8.35578,36.195628 -12.35865,42.315772 -1.2265,1.875237 -2.96819,5.039299 -3.87044,7.031247 -0.90224,1.991953 -1.94923,4.306715 -2.32664,5.143922 -0.57141,1.267569 -0.0994,1.200779 2.8216,-0.399216 7.84924,-4.29945 12.30877,6.272965 4.78166,11.336095 -1.80469,1.21394 -3.32202,2.70413 -3.37186,3.31155 -0.17576,2.14213 -3.2797,9.08334 -6.36304,14.22938 -1.89576,3.164 -3.03208,3.9617 -7.27161,5.10468 -5.89534,1.5894 -6.135,1.85103 -11.21135,12.23907 -10.70763,21.91172 -10.85613,26.78554 -1.18541,38.90621 3.8127,4.77861 6.31922,8.51955 8.47999,12.65629 l 1.22423,2.34375 0.006,-3.02547 c 0.003,-1.66402 -1.04891,-5.82752 -2.33797,-9.25225 -2.8201,-7.49233 -2.9778,-9.327 -0.47573,-5.53478 1.0206,1.54687 2.52101,5.97656 3.33422,9.84375 5.62144,26.73242 6.07243,27.97082 11.04542,30.33067 3.30652,1.56903 8.30339,9.04433 6.04571,9.04433 -0.69526,0 -2.00477,-1.25385 -2.91003,-2.78633 -0.90526,-1.53248 -3.12418,-3.4878 -4.93093,-4.34517 -3.93356,-1.8666 -5.6881,-4.95423 -6.563,-11.54951 -0.36442,-2.7471 -0.95778,-4.41626 -1.34639,-3.78747 -0.42159,0.68213 -1.3163,-0.74681 -2.27514,-3.6336 -0.86917,-2.61683 -4.16865,-8.67766 -7.33217,-13.46852 -3.16352,-4.79086 -6.8507,-10.70295 -8.19373,-13.13799 l -2.44185,-4.42734 -1.73144,7.23984 c -1.64387,6.87376 -3.48608,12.90944 -6.50186,21.30234 -0.7411,2.0625 -1.13464,4.83243 -0.87451,6.15541 1.19141,6.05927 -5.30826,17.66905 -8.43783,15.07175 -2.06287,-1.71204 -3.72389,-0.53687 -2.49272,1.76357 0.62924,1.17574 1.50835,1.57561 2.58065,1.17383 1.41241,-0.52921 1.46007,-0.40491 0.36237,0.94505 -0.69517,0.85492 -2.00981,1.46125 -2.92141,1.3474 -1.05521,-0.13179 -3.7875,2.34789 -7.51942,6.82424 -3.22406,3.86719 -8.36354,9.67506 -11.42105,12.90637 -3.057513,3.2313 -5.309632,6.27878 -5.00471,6.77215 0.304913,0.49337 -1.602816,3.67667 -4.239403,7.07399 -5.613489,7.23317 -5.555472,7.42844 3.474712,11.69499 8.349831,3.94511 20.730621,7.35709 31.690641,8.73352 l 9.19857,1.15522 1.22726,4.66001 c 1.79647,6.82127 1.7387,7.00455 -2.2056,6.99718 -12.60191,-0.0235 -40.405758,-10.77224 -49.302008,-19.05967 l -4.536377,-4.22593 3.967434,-5.46329 c 2.182088,-3.00481 4.98776,-6.56822 6.234826,-7.9187 l 2.267395,-2.45539 -5.053093,-5.21721 -5.053089,-5.2172 -8.081655,7.0181 c -9.765914,8.4807 -9.771471,8.43729 2.603437,20.33315 13.316252,12.80075 40.90662,24.00357 59.27344,24.06742 l 5.83594,0.0202 -0.50208,-3.04687 -0.50208,-3.04688 1.4298,2.34375 c 4.03326,6.61141 -3.11853,8.57582 -18.66002,5.12541 z M 132.75,290.0625 c -0.33365,-0.86947 -0.81758,-1.36993 -1.07539,-1.11212 -0.25781,0.25781 -0.19576,1.18015 0.13789,2.04962 0.33365,0.86948 0.81757,1.36993 1.07539,1.11212 0.25781,-0.25781 0.19576,-1.18014 -0.13789,-2.04962 z m 1.88538,-1.47029 c -0.5729,-2.14929 -1.16412,-3.27622 -1.31383,-2.50428 -0.26894,1.38672 1.29362,6.41207 1.99375,6.41207 0.19894,0 -0.10703,-1.75851 -0.67992,-3.90779 z m -6.05988,-0.91128 c -0.64225,-2.23177 -0.93104,-2.55729 -0.99095,-1.11698 -0.0948,2.28017 0.86753,5.29648 1.49097,4.67304 0.2235,-0.22351 -0.002,-1.82374 -0.50002,-3.55606 z m -3.68802,0.13157 C 124.66044,286.26562 124.31164,285 124.11234,285 c -0.19928,0 -0.36234,1.26562 -0.36234,2.8125 0,1.54687 0.34881,2.8125 0.77513,2.8125 0.42632,0 0.58938,-1.26563 0.36235,-2.8125 z m -4.68919,-0.94898 c -0.22796,-1.55318 -0.78771,-3.05464 -1.24388,-3.33658 -0.95519,-0.59034 -1.14661,4.59336 -0.20441,5.53556 1.31891,1.31891 1.84694,0.51719 1.44829,-2.19898 z m -4.88579,-1.58227 c 0,-1.74107 -0.30226,-2.22899 -0.96823,-1.56302 -0.53253,0.53253 -0.69834,1.67159 -0.36845,2.53125 0.8684,2.26302 1.33668,1.92382 1.33668,-0.96823 z m -4.6875,-1.6875 c 0,-1.28906 -0.42187,-2.34375 -0.9375,-2.34375 -1.04735,0 -1.28503,3.08996 -0.3125,4.0625 1.03345,1.03344 1.25,0.73568 1.25,-1.71875 z M 70.643073,255.29443 c 0.561584,-0.56159 -4.457068,-5.91943 -5.544684,-5.91943 -1.100768,0 -0.190081,2.45795 1.62753,4.3927 2.152428,2.29116 2.872194,2.57169 3.917154,1.52673 z m 27.387046,-10.31631 c -0.254457,-0.6631 0.0056,-1.10522 0.577275,-0.9825 0.571959,0.12272 2.349736,-1.54406 3.950636,-3.70396 1.6009,-2.1599 3.3326,-3.97641 3.84822,-4.0367 0.81239,-0.095 5.22087,-5.17307 11.09348,-12.77849 2.30206,-2.98132 -0.318,-4.29778 -3.25807,-1.63705 -1.06618,0.96488 -2.04657,1.54339 -2.17865,1.28558 -0.13207,-0.25781 -3.29352,2.80078 -7.02544,6.79687 -3.7319,3.9961 -6.443067,7.26563 -6.024792,7.26563 0.418266,0 -1.277409,2.06901 -3.768169,4.59779 -4.79669,4.86992 -5.239004,7.87068 -0.742593,5.03796 2.513381,-1.58342 2.51895,-1.58143 0.888609,0.31862 -2.484187,2.89513 -1.963133,3.80045 0.730753,1.26967 1.304259,-1.22528 2.163197,-2.77033 1.908741,-3.43342 z m 0.407381,-2.51958 c 0,-0.19467 0.738281,-0.93296 1.64063,-1.64063 1.48693,-1.16613 1.52009,-1.13297 0.35396,0.35396 -1.224724,1.56165 -1.99459,2.05827 -1.99459,1.28667 z m 3.34152,-4.60835 c 0.35206,-0.92458 0.87627,-1.44489 1.16492,-1.15625 0.28865,0.28865 6e-4,1.04512 -0.64011,1.68106 -0.92589,0.919 -1.03357,0.81132 -0.52481,-0.52481 z M 99.375,236.83354 c 0,-0.19467 0.73828,-0.93296 1.64063,-1.64063 1.48693,-1.16613 1.52009,-1.13297 0.35396,0.35396 -1.22472,1.56165 -1.99459,2.05827 -1.99459,1.28667 z m 8.12494,-4.17124 c 0.94534,-1.71543 2.31522,-3.61387 3.04417,-4.21875 1.7797,-1.47681 0.0284,1.66571 -2.78313,4.99395 l -1.97986,2.34375 1.71882,-3.11895 z M 112.5,226.52104 c 0,-0.19467 0.73828,-0.93296 1.64063,-1.64063 1.48693,-1.16613 1.52009,-1.13297 0.35396,0.35396 -1.22472,1.56165 -1.99459,2.05827 -1.99459,1.28667 z m 17.07694,-8.82182 c 1.45544,-2.46385 1.41257,-2.66237 -1.20827,-5.5956 -3.38022,-3.78313 -4.07147,-3.82075 -3.34373,-0.18202 0.328,1.63994 0.2057,2.63283 -0.28678,2.32846 -0.47223,-0.29185 -1.12359,-0.10189 -1.44746,0.42215 -0.32387,0.52403 -0.14209,0.95279 0.40397,0.95279 0.54605,0 0.99283,0.98437 0.99283,2.1875 0,4.17208 2.39074,4.11668 4.88944,-0.11328 z m -16.16029,-1.3711 c -0.0114,-0.64453 -0.81203,-2.20126 -1.77906,-3.45942 l -1.7582,-2.28755 0.51252,2.7563 c 0.28189,1.51597 0.977,3.06625 1.54468,3.44507 1.39589,0.93149 1.50413,0.89826 1.48006,-0.4544 z m 9.97029,-6.09375 c 0.28358,-0.90234 0.97614,-2.69531 1.53902,-3.98437 0.56289,-1.28906 0.94487,-2.81482 0.84885,-3.39056 -0.096,-0.57575 0.54281,-1.63044 1.41959,-2.34375 1.39743,-1.13689 1.5197,-1.09819 0.99082,0.31366 -0.33183,0.88583 -0.19989,1.85995 0.29322,2.1647 0.49311,0.30477 0.89656,-0.0691 0.89656,-0.8308 0,-0.76169 0.28263,-2.12142 0.62807,-3.02162 0.42535,-1.10844 0.27752,-1.42007 -0.45802,-0.96548 -0.70871,0.43802 -0.89281,0.16758 -0.52982,-0.77833 0.30593,-0.79725 0.9991,-1.17585 1.54035,-0.84134 0.58641,0.36242 0.70444,0.15569 0.29206,-0.51154 -0.38062,-0.61588 -0.16153,-4.08836 0.48688,-7.71664 1.1178,-6.25483 1.24674,-6.48378 2.48696,-4.41571 0.97896,1.63244 1.14349,1.70947 0.65396,0.30616 -1.24434,-3.56718 -1.58149,-6.68308 -0.56584,-5.22956 0.97254,1.39182 2.1911,-2.02194 3.32029,-9.30169 0.50834,-3.27716 0.50736,-3.27658 -0.78841,0.46875 -0.71356,2.0625 -1.3298,4.55859 -1.36943,5.54688 -0.0397,0.98827 -0.34724,1.52167 -0.68359,1.18534 -0.33635,-0.33635 0.14265,-3.39774 1.06444,-6.80309 1.20422,-4.44874 1.92701,-5.83793 2.56786,-4.93532 0.63534,0.89486 0.75494,0.63424 0.41576,-0.90605 -0.26187,-1.18923 0.10144,-3.2986 0.80736,-4.6875 0.70592,-1.3889 2.37731,-5.4202 3.71418,-8.95847 1.33687,-3.53826 3.04633,-7.04886 3.79881,-7.80134 0.75247,-0.75247 1.36813,-2.01594 1.36813,-2.80772 0,-0.9496 0.52377,-1.2386 1.53885,-0.84907 1.2867,0.49375 1.34469,0.35657 0.35396,-0.8372 -0.67064,-0.80807 -0.77299,-1.42771 -0.23584,-1.42771 0.52197,0 1.84999,-1.9167 2.95116,-4.25933 1.10117,-2.34262 2.36544,-4.03477 2.80952,-3.76032 1.27222,0.78628 2.99129,-1.88818 2.32677,-3.6199 -1.21243,-3.15954 -5.41559,1.64431 -11.41451,13.0458 -7.18794,13.66134 -11.19849,24.51261 -15.2457,41.25 -2.62047,10.83708 -5.85368,20.79651 -8.32209,25.63499 -1.0723,2.10187 -1.94962,4.47118 -1.94962,5.26516 0,1.97354 1.81313,1.82769 2.44944,-0.19703 z M 155.625,127.61065 c 0,-0.51562 0.42187,-1.19822 0.9375,-1.5169 0.51562,-0.31868 0.9375,-0.15753 0.9375,0.3581 0,0.51562 -0.42188,1.19822 -0.9375,1.5169 -0.51563,0.31868 -0.9375,0.15753 -0.9375,-0.3581 z m -23.4375,82.79647 c 0,-1.50504 -2.11435,-4.15712 -3.31423,-4.15712 -1.67462,0 -1.70656,0.42925 -0.21025,2.82522 1.05499,1.68933 3.52448,2.62254 3.52448,1.3319 z m 0.27198,-17.28341 c 0.26986,-1.03197 0.10813,-1.63988 -0.35941,-1.35092 -0.46754,0.28895 -0.85007,1.13328 -0.85007,1.87629 0,1.94039 0.63703,1.66368 1.20948,-0.52537 z m 10.68094,-37.67449 c -0.29927,-0.74787 -0.52142,-0.52573 -0.5664,0.56641 -0.0407,0.98827 0.18086,1.54199 0.49239,1.23047 0.31152,-0.31153 0.34482,-1.12013 0.074,-1.79688 z m 3.09523,-7.14518 c -0.0124,-1.36619 -0.13996,-1.39094 -0.92315,-0.17904 -1.1865,1.83597 -1.1865,3.07704 0,2.34375 0.51562,-0.31868 0.93104,-1.29279 0.92315,-2.16471 z m 3.58329,-7.2351 c -0.28865,-0.28864 -0.81286,0.23167 -1.16492,1.15625 -0.50876,1.33613 -0.40108,1.44381 0.52481,0.52481 0.64071,-0.63594 0.92876,-1.39241 0.64011,-1.68106 z m 5.77734,-10.28769 c 0,-0.51563 -0.40894,-0.30469 -0.90878,0.46875 -0.49984,0.77344 -0.90878,1.82812 -0.90878,2.34375 0,0.51562 0.40894,0.30469 0.90878,-0.46875 0.49984,-0.77344 0.90878,-1.82813 0.90878,-2.34375 z m 7.99747,-0.46875 c -0.31868,-0.51563 -1.08186,-0.93104 -1.69596,-0.92315 -0.67088,0.008 -0.55525,0.37709 0.28971,0.92315 1.80105,1.16393 2.12559,1.16393 1.40625,0 z m 2.17863,-5.51707 c -2.32838,-4.04565 -1.87811,-6.29644 1.51792,-7.58761 1.2861,-0.48898 2.87495,-1.74826 3.53079,-2.79843 1.79805,-2.87913 2.8621,-2.29138 1.30455,0.72059 -0.74801,1.4465 -2.44635,3.12495 -3.77408,3.72991 -2.89344,1.31833 -3.0088,2.18628 -0.58242,4.38213 1.77803,1.60909 1.82605,1.57973 1.64063,-1.00329 -0.12036,-1.67661 0.27056,-2.66951 1.05681,-2.68418 4.19969,-0.0784 4.81048,-8.07756 1.06745,-13.9797 l -2.84096,-4.47974 2.95507,-5.313182 c 8.08533,-14.537315 12.69487,-26.59204 15.29562,-40.000678 0.80009,-4.125 1.71044,-8.398758 2.023,-9.497239 1.51346,-5.319123 -16.92114,-16.190202 -45.64249,-26.915863 l -6.20698,-2.317926 -1.17715,3.56678 c -0.83456,2.528735 -0.9839,6.401911 -0.51316,13.308439 l 0.664,9.741658 6.25139,1.723793 c 3.43826,0.948085 8.68188,2.046306 11.65248,2.44049 8.55812,1.135618 10.45146,2.85272 9.65082,8.75245 -0.35994,2.65233 -0.99055,9.463043 -1.40135,15.134918 -0.58018,8.010351 -1.50703,12.565455 -4.15187,20.404635 -1.87272,5.550671 -3.41433,10.824105 -3.4258,11.718745 -0.0114,0.89465 -0.84583,2.68131 -1.85415,3.97037 -2.58899,3.30983 -2.31398,5.90858 0.9548,9.02278 1.55638,1.48278 4.99315,4.89753 7.63727,7.58833 5.41044,5.50596 7.42116,5.67714 4.36781,0.37182 z m -13.63546,-4.83261 c -0.27503,-1.05171 -0.70953,-1.70272 -0.96555,-1.44669 -0.50719,0.50718 0.38868,3.35887 1.05519,3.35887 0.22572,0 0.18538,-0.86048 -0.0896,-1.91218 z m -27.5569,-0.81405 c 3.4496,-2.18467 0.34186,-5.85982 -4.37675,-5.17585 -5.75185,0.83374 -5.94796,0.98866 -4.70494,3.71681 1.10968,2.43546 6.23875,3.25949 9.08169,1.45904 z M 109.6875,117.1875 c 0,-1.04167 -0.625,-1.875 -1.40625,-1.875 -1.42726,0 -1.92306,1.98319 -0.78125,3.125 1.18856,1.18855 2.1875,0.61772 2.1875,-1.25 z m 4.67315,1.17188 c -0.008,-0.38672 -0.40684,-1.32373 -0.88653,-2.08223 -1.08012,-1.70793 -2.34731,-0.63978 -1.58811,1.33867 0.5607,1.46116 2.50119,2.04422 2.47464,0.74356 z m 26.9207,-1.73645 c 0.21666,-0.64886 -1.99932,-1.25225 -5.95582,-1.62172 -6.78371,-0.63347 -7.39504,-0.4872 -6.60194,1.57959 0.63192,1.64677 12.00922,1.68494 12.55776,0.0421 z m -0.83706,-4.56721 c 0.28845,-0.28846 0.10408,-0.94485 -0.40972,-1.45865 -1.12714,-1.12714 -6.90957,0.64479 -6.90957,2.11731 0,0.96616 6.25758,0.40305 7.31929,-0.65866 z M 180,102.61128 c 0,-1.98084 -1.65389,-2.48608 -3.965,-1.21127 -1.83438,1.01184 -1.90188,1.22181 -0.48813,1.51835 0.90235,0.18927 1.64063,0.72182 1.64063,1.18346 0,0.46163 0.63281,0.5965 1.40625,0.29971 C 179.36719,104.10472 180,103.29912 180,102.61128 Z m -2.34375,-0.42378 c 0.31868,-0.51562 0.76545,-0.9375 0.99283,-0.9375 0.22738,0 0.41342,0.42188 0.41342,0.9375 0,0.51563 -0.44678,0.9375 -0.99283,0.9375 -0.54606,0 -0.7321,-0.42187 -0.41342,-0.9375 z M 160.60879,68.203125 c 0.31446,-4.769531 0.84808,-10.220339 1.18579,-12.112907 0.66176,-3.708451 -2.27106,-5.445905 -9.21646,-5.45999 -3.17803,-0.0065 -3.18547,-0.208894 0.25456,6.923803 1.55798,3.230363 3.56189,8.896116 4.45313,12.590563 2.1199,8.787593 2.63542,8.486395 3.32298,-1.941469 z M 0.80821092,297.50072 c -1.33819703,-1.6128 1.93007588,-2.37009 9.30781208,-2.15669 10.580343,0.30603 12.377889,0.10595 11.831888,-1.3169 -0.271284,-0.70695 0.06328,-1.86711 0.743482,-2.57812 0.6802,-0.71102 1.740859,-2.43263 2.357022,-3.82579 1.287178,-2.91036 4.803618,-4.97695 10.14023,-5.95932 2.044683,-0.3764 4.073808,-1.15085 4.509166,-1.721 0.493952,-0.64689 0.605776,-0.45276 0.297423,0.51636 -0.496495,1.5604 -0.01802,1.83302 7.572979,4.31493 1.670329,0.54613 3.874417,0.77396 4.897972,0.50629 1.771461,-0.46325 8.882804,2.99643 12.386429,6.02601 0.864251,0.74731 4.066955,1.58505 7.117121,1.86162 l 5.545757,0.50287 1.547162,-3.86673 c 1.85926,-4.64675 3.710301,-5.27486 2.434403,-0.82606 -0.479632,1.67238 -0.872057,3.21032 -0.872057,3.41763 0,0.20733 5.248762,0.15029 11.663916,-0.12676 12.079024,-0.52166 13.399434,-0.32184 11.667004,1.76561 -0.75023,0.90397 -1.51283,0.97885 -2.82374,0.27727 -0.98776,-0.52862 -2.11823,-0.76195 -2.512158,-0.51849 -0.393928,0.24346 -3.865678,0.53816 -7.715003,0.6549 -3.849323,0.11675 -7.250399,0.59542 -7.557946,1.06374 -0.307547,0.46832 -6.337519,0.82824 -13.399937,0.79982 -7.062419,-0.0284 -14.826414,0.40853 -17.253324,0.97098 -6.289284,1.45761 -50.702205,1.64406 -51.88560108,0.21783 z M 27.751143,294.8212 c -1.494685,-0.77947 -2.95903,-1.17581 -3.2541,-0.88074 -0.778703,0.7787 1.906649,2.27939 4.096707,2.28941 1.498407,0.007 1.329171,-0.27607 -0.842607,-1.40867 z M 42.1875,294.58136 c -0.773438,-0.26156 -2.460938,-0.9017 -3.75,-1.42252 -4.399495,-1.77753 -8.453554,-1.49586 -5.490715,0.38149 0.851117,0.53929 0.902539,0.81071 0.155418,0.82032 -0.614101,0.008 -1.377279,-0.40753 -1.695953,-0.92315 -0.730944,-1.18269 -4.21875,-1.2366 -4.21875,-0.0652 0,0.47977 0.949219,1.00711 2.109375,1.17188 3.587155,0.50945 14.379151,0.54059 12.890625,0.0372 z m 11.38901,-4.19074 c -1.70761,-3.47121 -6.823208,-4.65224 -5.96686,-1.37757 0.523212,2.00077 3.764992,4.42445 5.917887,4.42445 1.428736,0 1.432504,-0.23445 0.04897,-3.04688 z m -17.092135,-0.36644 c 0.813147,-0.70085 -6.099515,-0.16854 -7.890625,0.60761 -1.20628,0.52273 -0.2032,0.6193 2.8125,0.27079 2.578125,-0.29795 4.863281,-0.69323 5.078125,-0.8784 z m 8.992841,-1.59843 c -2.84974,-4.34926 -7.028677,-5.21152 -13.903961,-2.86888 -6.09791,2.07778 -5.478127,2.8474 1.954797,2.4274 4.304542,-0.24323 7.390203,0.0987 9.609375,1.06476 1.797853,0.78266 3.384017,1.45743 3.52481,1.4995 0.140793,0.0421 -0.392466,-0.91319 -1.185021,-2.12278 z M 57.1875,289.6875 c 0,-0.51563 -0.421875,-0.9375 -0.9375,-0.9375 -0.515625,0 -0.9375,0.42187 -0.9375,0.9375 0,0.51562 0.421875,0.9375 0.9375,0.9375 0.515625,0 0.9375,-0.42188 0.9375,-0.9375 z m 12.011719,7.79708 c 0.676758,-0.27081 1.485351,-0.23751 1.796875,0.074 0.311523,0.31152 -0.242188,0.5331 -1.230469,0.4924 -1.092134,-0.045 -1.314281,-0.26713 -0.566406,-0.5664 z m 28.077337,-0.96014 c 1.166166,-0.22424 2.853664,-0.21572 3.750004,0.0189 0.89633,0.23465 -0.0579,0.41813 -2.12031,0.40772 -2.0625,-0.0104 -2.795859,-0.2024 -1.629694,-0.42664 z m 74.051564,-0.89533 c 0.64454,-0.26007 1.69922,-0.26007 2.34375,0 0.64454,0.26007 0.11719,0.47287 -1.17187,0.47287 -1.28906,0 -1.81641,-0.2128 -1.17188,-0.47287 z m 51.53597,-0.75543 c -5.89426,-1.09148 -8.11983,-1.92505 -7.16097,-2.68207 0.21485,-0.16962 4.57364,0.11528 9.6862,0.63311 6.75501,0.6842 11.23899,0.63605 16.40625,-0.17615 3.91088,-0.61472 8.0599,-1.26348 9.22005,-1.4417 3.47308,-0.53351 2.38426,0.91399 -1.58116,2.10205 -2.0298,0.60815 -4.03371,1.04684 -4.45313,0.97488 -0.41942,-0.072 -0.97352,-0.039 -1.23133,0.0732 -0.25781,0.11221 -1.52344,0.3106 -2.8125,0.44087 -1.28906,0.13027 -4.45313,0.4654 -7.03125,0.74472 -2.57813,0.27933 -7.54709,-0.0217 -11.04216,-0.66888 z M 163.2636,293.7939 c -7.63281,-2.67343 -19.8261,-11.19086 -19.8261,-13.84921 0,-0.51562 1.37109,0.3349 3.04687,1.89007 4.17802,3.87729 7.40821,5.86351 16.1662,9.94053 7.65392,3.56305 7.96714,4.59442 0.61303,2.01861 z m 93.6114,0.73159 c 0,-2.35043 10.10607,-3.95454 13.07611,-2.07555 1.85007,1.17045 -2.40268,2.24227 -6.39828,1.61256 -1.60551,-0.25303 -3.15691,-0.0753 -3.44755,0.39497 -0.66358,1.07371 -3.23028,1.12775 -3.23028,0.068 z m -45.46875,-1.08799 c -0.31868,-0.51563 0.31414,-0.9375 1.40625,-0.9375 1.09211,0 1.72493,0.42187 1.40625,0.9375 -0.31868,0.51562 -0.95149,0.9375 -1.40625,0.9375 -0.45476,0 -1.08757,-0.42188 -1.40625,-0.9375 z M 165,289.80124 c -4.87368,-1.56943 -11.51032,-4.68241 -10.15585,-4.7637 0.34397,-0.0206 2.66429,0.83829 5.15625,1.90875 2.49197,1.07045 6.85116,2.51187 9.6871,3.20314 2.83594,0.69127 4.10156,1.26932 2.8125,1.28455 -1.28906,0.0152 -4.66406,-0.7195 -7.5,-1.63274 z m 72.53794,1.01519 c 2.0827,-3.36988 8.42996,-4.01678 24.49331,-2.49629 11.3722,1.07644 8.04205,1.60365 -5.71641,0.90499 -11.43827,-0.58085 -13.62792,-0.45834 -16.27505,0.91055 -1.68226,0.86993 -2.8081,1.17626 -2.50185,0.68075 z m -10.83872,-1.76935 c 0.67675,-0.27081 1.48535,-0.23751 1.79688,0.074 0.31152,0.31153 -0.2422,0.5331 -1.23047,0.4924 -1.09214,-0.045 -1.31428,-0.26713 -0.56641,-0.5664 z M 74.0625,287.8693 c -1.804688,-0.36579 -7.162038,-2.88379 -11.905223,-5.59557 -6.413978,-3.66699 -9.176802,-4.77122 -10.78125,-4.30897 -5.288421,1.5236 -5.895942,1.60992 -4.969777,0.70606 3.761369,-3.67078 6.875785,-3.22433 18.059359,2.58876 5.941805,3.08848 11.375595,5.61542 12.075087,5.61542 0.699492,0 1.271804,0.42187 1.271804,0.9375 0,0.51562 -0.105469,0.88898 -0.234375,0.82969 -0.128906,-0.0593 -1.710938,-0.40709 -3.515625,-0.77289 z m 116.21142,-0.38419 c -0.3482,-0.32903 -5.58292,-0.81366 -16.36767,-1.51532 -2.26442,-0.14733 2.17262,-1.88002 4.84738,-1.89294 2.5984,-0.0126 3.04955,-0.39771 3.58562,-3.06123 1.14246,-5.67635 1.44997,-6.25423 3.00973,-5.65569 2.28879,0.8783 1.01741,-5.19396 -3.05514,-14.59171 -2.64279,-6.09842 -3.58457,-9.84364 -4.3192,-17.17617 -0.92464,-9.22913 -0.51681,-13.79263 0.60187,-6.73472 2.01334,12.70247 2.99165,16.46353 5.84556,22.47307 1.87721,3.95287 3.41787,8.90067 3.73832,12.00555 0.59575,5.77227 0.86383,6.09949 6.36895,7.77408 l 3.75191,1.14129 -3.75,-0.31727 c -2.0625,-0.1745 -5.12109,-0.7641 -6.79688,-1.31022 -2.92678,-0.9538 -3.0468,-0.89391 -3.04515,1.51974 l 0.002,2.51268 9.87577,0 c 7.33908,0 10.07928,-0.32913 10.66814,-1.28135 0.62634,-1.01284 1.45415,-1.06824 3.95064,-0.26434 5.43073,1.74875 14.10905,0.83642 15.00188,-1.57709 0.41371,-1.11841 1.02189,-2.03347 1.35148,-2.03347 0.32959,0 0.3289,0.70455 -0.002,1.56567 -1.31014,3.41417 9.94805,4.36148 19.19575,1.6152 5.03478,-1.49517 12.2236,-1.45764 28.51418,0.14885 10.27614,1.01338 9.21539,2.43502 -1.37223,1.83908 -22.95646,-1.29214 -23.6992,-1.27518 -28.59375,0.6528 -3.84341,1.51394 -6.03803,1.74775 -12.1875,1.29838 -16.56344,-1.21034 -38.01224,-0.17571 -37.03125,1.78627 0.4581,0.9162 -2.93743,1.88314 -3.78858,1.07886 z m 75.54355,-0.66873 c 0.29876,-0.48339 1.64329,-0.87888 2.98786,-0.87888 3.00295,0 2.51336,0.66171 -0.95492,1.29063 -1.4769,0.26781 -2.34434,0.0922 -2.03293,-0.41175 z m 7.2294,-0.58763 c 0.90235,-0.2358 2.37891,-0.2358 3.28125,0 0.90235,0.23581 0.16407,0.42875 -1.64062,0.42875 -1.80469,0 -2.54297,-0.19294 -1.64063,-0.42875 z M 79.298899,283.45113 c 0.977367,-4.13753 2.446957,-5.0741 2.096067,-1.33583 -0.165669,1.76498 -0.84696,3.3883 -1.513981,3.60738 -0.892817,0.29324 -1.046381,-0.30604 -0.582086,-2.27155 z M 255,285.10433 c 0,-1.03942 6.2575,-2.27849 7.53124,-1.49128 0.51527,0.31846 0.69413,0.97173 0.39747,1.45173 C 262.24003,286.17909 255,286.21522 255,285.10433 Z M 40.582923,277.81076 c -3.178788,-6.73579 4.310412,-48.22698 9.93228,-55.02618 1.985618,-2.40144 4.747929,-11.56077 5.36007,-17.77304 C 56.89038,194.70981 80.625,152.16032 80.625,160.64225 c 0,0.69699 -2.182007,4.59933 -4.848904,8.67187 -2.666897,4.07255 -6.383412,9.75815 -8.258922,12.63466 -4.042462,6.20004 -7.929898,16.70603 -9.801916,26.49018 -0.742977,3.88319 -2.392811,9.30348 -3.666297,12.04507 -6.944129,14.94952 -9.841022,25.59791 -11.376609,41.8181 -0.669305,7.06976 -0.870702,13.50967 -0.447549,14.31088 0.423152,0.80123 0.477335,1.92929 0.120404,2.50681 -0.403899,0.65352 -1.069379,0.15919 -1.762284,-1.30906 z m 172.616797,1.69616 c 0.31448,-0.50884 1.9095,-1.21898 3.54449,-1.57808 1.63499,-0.35911 4.37234,-1.43904 6.083,-2.39986 4.05372,-2.27684 4.06282,-0.65119 0.01,1.74018 -3.51345,2.07299 -10.54439,3.70556 -9.63723,2.23777 z m -17.54738,-4.20205 c -0.81216,-1.2395 -2.15715,-4.94408 -2.98888,-8.23238 -0.83173,-3.28831 -1.72938,-6.71702 -1.99478,-7.61937 -0.26539,-0.90234 -0.0878,-1.64062 0.39461,-1.64062 0.48242,0 1.58484,2.63672 2.44983,5.85937 0.86498,3.22266 2.25221,7.44571 3.08273,9.38457 1.76625,4.12331 1.18794,5.50144 -0.94351,2.24843 z M 221.875,274.0625 c -0.34375,-0.34375 -0.625,-2.18344 -0.625,-4.08821 0,-3.05658 -1.44444,-11.50105 -4.77877,-27.93746 -1.02877,-5.07131 -8.01061,-23.43345 -13.20721,-34.73476 -1.57009,-3.41458 -2.95158,-6.83915 -3.06997,-7.61016 -0.11839,-0.77102 -0.83238,-1.40384 -1.58664,-1.40625 -1.55711,-0.005 -4.99425,-3.81911 -11.40939,-12.66066 -2.43178,-3.35156 -6.30612,-8.5955 -8.60965,-11.65319 -4.57882,-6.07789 -4.79773,-8.62225 -0.28795,-3.34681 6.9048,8.0771 15.09682,18.51543 17.43265,22.21283 1.4015,2.21845 2.95517,3.89869 3.45259,3.73388 2.07055,-0.68602 6.04544,6.02756 12.66846,21.39704 7.9825,18.52431 15.71053,61.78341 10.02088,56.09375 z m -145.875388,-9.15546 -4.039699,-4.11616 1.972884,-2.11763 c 1.950969,-2.09413 1.995011,-2.09765 3.964974,-0.31733 5.343464,4.82908 6.988513,9.67328 2.225052,6.55213 l -2.435693,-1.59592 1.595928,2.43569 c 2.600284,3.96854 1.045914,3.57051 -3.283446,-0.84078 z m 4.346902,-5.02469 c -4.074617,-4.17278 -4.227485,-4.99388 -1.191734,-6.40113 2.017555,-0.93526 2.631605,-0.67475 5.617685,2.38328 4.793917,4.90941 4.550961,7.92124 -0.289485,3.58862 l -2.356615,-2.10937 1.593068,2.54514 c 3.054231,4.87955 1.395077,4.87633 -3.372919,-0.007 z m 5.525099,-4.11735 c -3.910985,-3.46253 -4.135616,-4.52435 -1.328061,-6.2777 1.877373,-1.17243 2.296673,-0.99176 5.15625,2.22176 3.748959,4.21299 4.131461,6.40088 0.562943,3.21998 -1.402365,-1.25003 -2.100668,-1.63998 -1.551783,-0.86654 3.533734,4.97941 1.940813,5.93453 -2.839349,1.7025 z M 185.625,243.75 c -0.74357,-0.45955 -1.04073,-1.14677 -0.66035,-1.52715 0.38038,-0.38038 1.18378,-0.19942 1.78535,0.40215 1.41648,1.41648 0.62587,2.20709 -1.125,1.125 z m 3.50993,-0.55256 c -0.37464,-0.37465 -0.1991,-1.26202 0.39008,-1.97195 0.80518,-0.97017 0.78145,-2.58574 -0.0956,-6.50456 -1.23052,-5.49856 -0.89859,-9.16312 1.50476,-16.61319 1.14723,-3.55623 1.23548,-5.05736 0.40453,-6.88109 -0.81363,-1.78571 -0.79947,-2.2448 0.0604,-1.95819 2.4567,0.8189 3.09859,3.37451 1.88084,7.48842 -3.23479,10.92814 -3.36991,15.08498 -0.69718,21.44799 0.69661,1.65842 -2.35835,6.08206 -3.44786,4.99257 z M 93.740511,231.79687 c -0.0053,-0.38671 0.906883,-3.31245 2.026895,-6.50165 2.5368,-7.22348 1.130007,-15.51466 -2.725568,-16.06355 -2.386982,-0.33981 -2.500281,-0.7839 -0.899243,-3.5246 1.665427,-2.85094 9.452365,-11.64358 10.312265,-11.64411 1.10642,-6.9e-4 -1.1386,3.78146 -4.153879,6.99798 -2.720662,2.90223 -3.420169,5.55597 -1.738481,6.59531 0.515625,0.31868 0.940097,1.29279 0.943275,2.16471 0.0028,0.87191 0.635991,2.79367 1.40625,4.27058 1.857535,3.56165 1.765905,5.8662 -0.373397,9.39156 -0.975628,1.60773 -2.063831,4.29424 -2.418234,5.97003 -0.553941,2.61928 -2.352263,4.3903 -2.379883,2.34375 z m -15.180195,-6.12895 c -3.956687,-3.43315 -5.081724,-5.9597 -6.767958,-15.19917 -0.658724,-3.60938 -1.517244,-7.30078 -1.907821,-8.20313 -0.415497,-0.95991 -0.309714,-1.64062 0.254956,-1.64062 1.21321,0 2.650417,4.63622 3.397896,10.96111 0.830299,7.02568 2.819586,11.06581 6.598593,13.40136 1.82226,1.12622 3.074737,2.43352 2.783281,2.9051 -0.676104,1.09396 -0.331703,1.26973 -4.358947,-2.22465 z m 7.851944,-13.66708 c -3.706588,-3.97378 -6.764963,-9.36533 -5.689541,-10.02998 1.407748,-0.87004 3.437854,1.25752 4.62117,4.843 0.639473,1.93762 2.430709,4.15454 4.484332,5.55001 3.038951,2.06502 3.178604,2.32363 1.254789,2.32363 -1.190607,0 -3.292445,-1.209 -4.67075,-2.68666 z m 27.02524,-16.80023 c 0,-1.45731 2.80145,-2.1791 4.53369,-1.16811 1.454,0.84859 1.45374,0.91242 -0.004,0.93899 -0.86017,0.0157 -2.23127,0.28458 -3.04687,0.59756 -0.81576,0.31298 -1.48307,0.14718 -1.48307,-0.36844 z m 73.57132,-16.37249 c -2.16174,-5.85952 -5.13382,-15.34886 -5.13382,-16.3914 0,-2.8404 1.9011,0.17074 4.73676,7.50251 1.64156,4.24436 3.19092,8.24436 3.443,8.88889 0.25312,0.64716 -0.2294,1.17188 -1.07764,1.17188 -0.84478,0 -1.73052,-0.52734 -1.9683,-1.17188 z m -58.96178,-25.3125 c -1.95336,-3.99609 -3.87272,-7.26562 -4.26521,-7.26562 -0.3925,0 -1.7204,-1.00305 -2.95087,-2.22901 C 115.48908,138.6987 110.28452,135 108.13722,135 c -1.30152,0 -2.05737,-0.40937 -1.73097,-0.9375 1.54253,-2.49588 5.75052,-0.82988 11.03128,4.36744 2.96455,2.9177 5.53975,5.13255 5.72267,4.92187 0.44361,-0.51095 -1.00897,-13.47742 -1.80529,-16.11499 -0.49091,-1.62599 -0.37625,-1.84145 0.52479,-0.98613 0.6341,0.60194 1.49068,4.44485 1.9035,8.53981 0.59871,5.93906 1.53543,9.00638 4.63004,15.16124 2.1337,4.24373 3.72329,8.41644 3.53241,9.2727 -0.20387,0.91458 -1.81215,-1.44043 -3.89861,-5.70882 z m 53.79935,5.625 c -0.0158,-0.1289 -0.14405,-5.50781 -0.28512,-11.95312 -0.20582,-9.40295 -0.67194,-12.83033 -2.35873,-17.34375 -3.29699,-8.82189 -3.46862,-9.8143 -1.21763,-7.04017 4.70809,5.80227 8.68023,36.57142 4.72118,36.57142 -0.45709,0 -0.84397,-0.10547 -0.8597,-0.23438 z m -62.31514,-6.14147 c -1.54687,-1.43945 -4.81641,-3.98901 -7.26562,-5.6657 -3.95593,-2.70816 -5.635,-4.83345 -3.81861,-4.83345 1.17687,0 10.99566,7.01149 13.12861,9.375 3.90988,4.33252 2.3344,5.19883 -2.04438,1.12415 z m -5.34452,-22.29812 c -4.05174,-1.24658 -6.19012,-2.76013 -5.24079,-3.70947 0.66478,-0.66478 9.55924,3.05525 9.92443,4.1508 0.19161,0.57482 0.20776,1.01576 0.0359,0.97984 -0.17188,-0.0359 -2.29566,-0.67544 -4.71952,-1.42117 z M 52.17986,96.796875 C 48.118643,90.168361 48.212912,70.901294 52.336426,64.797162 55.137143,60.651199 60,56.437361 60,58.156406 60,58.764153 58.934689,60.099374 57.632642,61.123565 51.379017,66.042666 49.870369,95.625 55.873127,95.625 c 0.662044,0 1.464449,0.421875 1.783123,0.9375 0.33709,0.545428 -0.596822,0.9375 -2.233093,0.9375 -1.546875,0 -3.006359,-0.316406 -3.243297,-0.703125 z M 80.739382,66.20242 C 77.332609,64.979897 73.125,60.746557 73.125,58.541471 c 0,-1.997492 1.656141,-1.645437 2.335988,0.496574 2.67162,8.417531 15.291215,7.229168 14.673714,-1.381795 C 89.848407,53.663917 88.213342,40.2873 87.670941,37.5 87.420093,36.210937 86.945521,32.730469 86.616337,29.765625 86.024674,24.436745 85.983063,24.375 82.983485,24.375 c -1.690634,0 -4.563747,-1.037888 -6.488043,-2.34375 -1.89954,-1.289063 -3.67406,-2.34375 -3.943377,-2.34375 -1.288263,0 -6.976295,-5.125282 -9.136827,-8.232867 C 58.851622,4.8905911 48.357398,1.0758084 41.379691,3.4444339 32.498964,6.4590504 27.449258,11.018942 26.439186,16.935731 c -0.376572,2.205875 -1.202236,4.183202 -1.83481,4.39406 -0.8284,0.276134 -0.985797,-0.490017 -0.562659,-2.738831 0.840845,-4.468774 2.892649,-9.21596 3.983273,-9.21596 0.51324,0 2.538673,-1.472086 4.500962,-3.2713023 9.521806,-8.7305135 21.81394,-7.1144618 33.511922,4.4058263 7.587324,7.472071 8.050334,7.834343 12.26191,9.594052 5.057959,2.11335 8.394387,1.887723 9.618502,-0.650451 1.236771,-2.564416 1.349938,-0.78193 0.296097,4.66382 -0.929721,4.804354 0.651122,14.439488 1.979612,12.065609 0.464741,-0.830447 0.604332,-1.899286 0.310202,-2.3752 -0.294129,-0.475912 -0.06391,-1.156308 0.511596,-1.511992 0.757048,-0.467881 0.870345,1.523199 0.409747,7.200846 -0.385716,4.754593 -0.230528,9.628345 0.393745,12.365859 C 94.138884,62.03378 88.708504,69.062144 80.739383,66.20242 Z M 66.828784,57.037117 c -1.473212,-1.473211 -3.367629,-1.9876 -8.097894,-2.198812 -6.153109,-0.274743 -12.149961,-2.766959 -13.043388,-5.420669 -0.295778,-0.87854 -0.709297,-0.866817 -1.822468,0.05166 -1.696907,1.400122 -3.954391,0.726726 -7.580434,-2.261206 -2.172353,-1.790062 -3.321045,-2.064431 -6.702608,-1.600935 -4.358545,0.597405 -6.68616,-1.403183 -5.944631,-5.109416 0.202654,-1.012882 -0.616023,-1.996098 -2.251803,-2.704376 -4.204863,-1.820666 -4.676954,-8.283772 -0.69358,-9.49538 1.078504,-0.328046 1.111099,-0.165498 0.167397,0.834825 -2.289125,2.426473 -1.395405,5.556966 1.990314,6.97161 1.739204,0.726686 3.387209,2.181721 3.662232,3.233413 0.296589,1.134159 1.276126,1.912165 2.407482,1.912165 2.21497,0 3.444164,-1.462392 1.986448,-2.36331 -0.634006,-0.391838 -0.09052,-1.809906 1.485633,-3.876354 2.555401,-3.350303 2.529259,-5.27405 -0.04267,-3.139544 -2.898399,2.405458 -7.335818,-4.598987 -5.216583,-8.234351 0.774279,-1.328207 0.943143,-1.119878 0.978611,1.207309 0.06638,4.355227 1.192452,5.605259 3.667115,4.070784 2.753319,-1.707261 3.837006,0.101068 3.440532,5.741156 -0.40809,5.805355 -0.357219,5.65681 -1.937243,5.65681 -1.954491,0 -1.76832,2.742943 0.234375,3.453172 0.902344,0.320005 2.273437,1.093441 3.046875,1.718747 1.92522,1.556494 8.4375,2.492132 8.4375,1.212239 0,-0.548877 1.889012,0.743272 4.197803,2.871442 4.654937,4.290771 6.114697,4.774768 6.114697,2.027385 0,-1.013108 0.84375,-2.293577 1.875,-2.845485 1.597557,-0.854987 1.875,-0.712959 1.875,0.959843 0,1.220451 -0.400743,1.715641 -1.059124,1.308739 -0.631355,-0.390199 -0.891675,-0.152227 -0.644531,0.589203 0.788155,2.364465 2.645261,1.97442 4.280744,-0.899077 1.735185,-3.048672 3.774672,-4.130908 2.184158,-1.159005 -0.80751,1.508847 -0.627209,1.679374 1.371623,1.297273 2.11449,-0.404211 2.256096,-0.213678 1.744034,2.346631 -0.731921,3.659602 1.256724,4.44237 4.405357,1.73403 2.523914,-2.170979 4.928264,-12.231814 3.984846,-16.674309 -0.380375,-1.791161 -0.289799,-1.897691 0.530932,-0.624456 4.113862,6.382006 -4.197595,24.242406 -9.031755,19.408245 z M 29.296875,43.441612 c -0.644531,-0.260074 -1.699219,-0.260074 -2.34375,0 -0.644531,0.260074 -0.117188,0.472861 1.171875,0.472861 1.289062,0 1.816406,-0.212787 1.171875,-0.472861 z M 80.352046,56.602046 C 79.043797,55.293798 79.732258,54.6875 82.526042,54.6875 c 1.618372,0 2.695034,0.436574 2.504692,1.015625 -0.396641,1.206649 -3.730435,1.847174 -4.678688,0.898921 z M 48.75,44.253266 c 0,-1.404797 3.150677,-6.740311 3.984375,-6.747338 0.386719,-0.0033 0.703125,1.495533 0.703125,3.33065 0,2.079007 -0.368827,3.108631 -0.978567,2.731791 -0.538212,-0.332633 -1.5929,-0.09494 -2.34375,0.528214 C 49.269178,44.798704 48.75,44.858291 48.75,44.253266 Z m -2.450144,-2.973969 c 0.335665,-1.788574 1.080052,-3.687011 1.654194,-4.21875 0.759409,-0.703323 0.877573,-0.08057 0.433594,2.285156 -0.335665,1.788574 -1.080052,3.687011 -1.654194,4.21875 -0.759409,0.703323 -0.877573,0.08057 -0.433594,-2.285156 z M 24.956765,33.260336 c -2.757562,-2.757561 -3.274723,-8.770293 -0.824511,-9.586109 0.835031,-0.278029 1.001068,0.424788 0.588129,2.489487 -0.387153,1.935762 -0.05322,3.673792 1.020779,5.312926 1.87536,2.862162 1.392371,3.960464 -0.784397,1.783696 z M 42.911437,28.59375 c -1.737602,-5.6645 -1.727415,-5.762723 0.712958,-6.874631 3.418097,-1.557389 4.210939,-1.285691 1.127984,0.386548 -2.204138,1.195556 -2.440442,1.687611 -1.581346,3.292847 0.555514,1.037988 0.853773,2.603422 0.662797,3.478743 -0.295903,1.356241 -0.43225,1.314333 -0.922393,-0.283507 z m 7.947938,0.796151 c -2.118556,-0.874361 -1.222623,-2.25086 1.087633,-1.671023 1.689424,0.424018 2.383571,0.132856 2.75123,-1.154014 0.318705,-1.115525 0.430813,-0.899814 0.318617,0.613058 -0.169721,2.288537 -1.830721,3.172269 -4.15748,2.211979 z m 16.465468,0.122442 c -0.348234,-0.348235 -0.405786,-1.225665 -0.127892,-1.949845 1.530087,-3.987344 -3.756959,-9.738324 -8.96024,-9.746494 -2.048603,-0.0032 -2.18602,0.280088 -1.672069,3.447195 0.519525,3.201458 0.448661,3.339389 -0.981097,1.909632 -1.264608,-1.264608 -1.346664,-1.96774 -0.457406,-3.91945 2.020303,-4.434081 10.341739,-2.654047 13.125088,2.807581 1.007755,1.977465 0.188597,8.566362 -0.926384,7.451381 z M 34.707217,26.662086 C 33.428999,25.404188 32.807785,24.375 33.326742,24.375 c 1.383541,0 5.110758,2.773601 5.110758,3.80316 0,1.432896 -1.249846,0.924929 -3.730283,-1.516074 z m 10.321495,1.931664 c 0,-0.515625 0.408954,-1.570313 0.908788,-2.34375 0.499834,-0.773438 0.908788,-0.984375 0.908788,-0.46875 0,0.515625 -0.408954,1.570312 -0.908788,2.34375 -0.499834,0.773437 -0.908788,0.984375 -0.908788,0.46875 z m 17.40512,-2.097418 C 62.053689,26.11619 61.034158,25.799783 60.168207,25.793207 59.151376,25.785485 58.488687,24.868154 58.297104,23.203125 57.992963,20.559864 60.976506,19.350252 62.34375,21.5625 62.662424,22.078125 62.26545,22.5 61.461578,22.5 60.657711,22.5 60,22.882379 60,23.349731 c 0,0.467353 0.886932,0.617794 1.970961,0.334315 1.136598,-0.297227 2.30102,0.01863 2.750641,0.746131 1.269774,2.054539 -0.60564,3.748284 -2.28777,2.066155 z m 28.988312,-0.487766 c -2.260984,-5.393908 3.195475,-12.401619 11.910166,-15.296173 8.66549,-2.8782143 29.32394,-1.8390147 29.32394,1.475107 0,1.518173 -0.22399,1.520963 -10.02459,0.124832 -7.60141,-1.082847 -16.75387,-0.07806 -22.51923,2.472232 -4.871364,2.154835 -5.262377,2.642757 -6.838794,8.533751 -0.876494,3.275404 -1.329997,3.934352 -1.851492,2.690251 z M 33.77715,23.474119 c -0.758504,-0.479694 -1.093105,-1.158163 -0.743557,-1.507712 0.857899,-0.8579 3.528907,0.233291 3.528907,1.44167 0,1.190723 -0.970583,1.213737 -2.78535,0.06604 z m 0.374635,-3.250904 c -0.992797,-0.725953 -1.4793,-1.645701 -1.081114,-2.043885 0.398184,-0.398186 1.427097,-0.02085 2.286472,0.838527 2.02634,2.02634 1.135584,2.917096 -1.205358,1.205358 z m 6.341747,-0.527122 c 0.241031,-0.768711 1.880935,-2.208391 3.644229,-3.199288 3.312963,-1.861746 3.194364,-1.666293 -1.375739,2.267239 -1.648742,1.419087 -2.535433,1.783399 -2.26849,0.932049 z m -6.179158,-2.969067 c -2.045232,-2.919978 -1.905697,-3.880022 0.983921,-6.7696398 3.108537,-3.108537 4.255737,-2.3604768 1.263918,0.8241698 -1.972581,2.099716 -2.067878,2.574526 -0.939784,4.68239 1.638237,3.061074 0.631923,4.032788 -1.308055,1.26308 z m 8.325972,-3.576294 c 0.250489,-0.405299 1.306341,-0.959424 2.346338,-1.23139 1.039997,-0.271965 1.685959,-0.162874 1.43547,0.242425 -0.250489,0.4053 -1.306341,0.959425 -2.346338,1.231391 -1.039997,0.271965 -1.685959,0.162874 -1.43547,-0.242426 z M 38.4375,10.84722 c 0,-0.257812 0.84375,-0.9203119 1.875,-1.47222 1.03125,-0.5519082 1.875,-0.792532 1.875,-0.5347195 0,0.2578125 -0.84375,0.9203114 -1.875,1.4722195 -1.03125,0.551908 -1.875,0.792533 -1.875,0.53472 z"
     id="path4711"
     inkscape:connector-curvature="0" />
</svg>
